<svg xmlns="http://www.w3.org/2000/svg" viewBox="0 0 37.23 144.34"><defs><style>.cls-1{fill:#303c6c;}</style></defs><title>letter_i</title><g id="Layer_2" data-name="Layer 2"><g id="Layer_1-2" data-name="Layer 1"><path class="cls-1" d="M29.71,144.34H7.77a2.69,2.69,0,0,1-2.95-2.6V50c0-1.44,1.15-2.48,2.95-2.48H29.71c1.8,0,3.11,1,3.11,2.48v91.76A2.84,2.84,0,0,1,29.71,144.34Z"/><path class="cls-1" d="M18.62,38A18.83,18.83,0,0,1,0,19,18.83,18.83,0,0,1,18.62,0,18.83,18.83,0,0,1,37.23,19,18.83,18.83,0,0,1,18.62,38Zm0-35A15.83,15.83,0,0,0,3,19,15.83,15.83,0,0,0,18.62,35,15.83,15.83,0,0,0,34.23,19,15.83,15.83,0,0,0,18.62,3Z"/><path class="cls-1" d="M18.06,14.41c-.54,0-1,0-1.52,0-4-.15-11.13-1-13.07-5.1L6.18,8c.89,1.88,4.91,3.18,10.47,3.39,7.77.29,14.09-1.55,14.87-2.9l2.6,1.5C32.22,13.29,23.83,14.41,18.06,14.41Z"/><path class="cls-1" d="M5.45,29.52l-2.32-1.9C6,24.08,13.18,22.87,18.87,22.89c2.68,0,11.68.42,15.12,4.75L31.64,29.5c-1.68-2.11-6.82-3.57-12.79-3.61C12.68,25.87,7.26,27.31,5.45,29.52Z"/><rect class="cls-1" x="1.99" y="17.5" width="34.23" height="3"/><path class="cls-1" d="M18.62,37.5c-1.9,0-3.28-2-4.23-6.14A57.34,57.34,0,0,1,13.2,19,57.34,57.34,0,0,1,14.39,6.64C15.34,2.51,16.72.5,18.62.5s3.27,2,4.22,6.14A57.34,57.34,0,0,1,24,19a57.34,57.34,0,0,1-1.19,12.36C21.89,35.49,20.51,37.5,18.62,37.5Zm0-33.82C17.68,4.93,16.2,10.15,16.2,19s1.48,14.07,2.42,15.32C19.55,33.06,21,27.85,21,19S19.55,4.94,18.62,3.68Z"/></g></g></svg>