<?xml version="1.0" encoding="utf-8"?>
<!-- Generator: Adobe Illustrator 24.0.1, SVG Export Plug-In . SVG Version: 6.00 Build 0)  -->
<svg version="1.1" id="Layer_1" xmlns="http://www.w3.org/2000/svg" xmlns:xlink="http://www.w3.org/1999/xlink" x="0px" y="0px"
	 viewBox="0 0 130 130" style="enable-background:new 0 0 130 130;" xml:space="preserve">
<style type="text/css">
	.st0{fill:#FFFFFF;}
	.st1{fill:#231F20;}
	.st2{fill:#E6E9EE;}
	.st3{fill:#54C0EB;}
	.st4{fill:#CED5E0;}
	.st5{fill:#324A5E;}
	.st6{fill:#FFD05B;}
	.st7{fill:#FF7058;}
	.st8{fill:none;}
	.st9{fill:#EEFAFF;}
	.st10{fill:#6D92AC;}
	.st11{fill:#E9BAA1;}
	.st12{font-family:'ArialRoundedMTBold';}
	.st13{font-size:12px;}
</style>
<path class="st0" d="M10.3,114.1h3.4v7.9h-3.4c-2.2,0-4-1.8-4-4l0,0C6.4,115.9,8.1,114.1,10.3,114.1z"/>
<polygon class="st0" points="67.6,122 77.2,118.1 67.6,114.1 "/>
<g>
	<path class="st1" d="M124.6,8.1c-0.2,0-0.4-0.1-0.5-0.2c-0.3-0.3-0.3-0.8,0-1.1l1.3-1.3c0.3-0.3,0.8-0.3,1.1,0
		c0.3,0.3,0.3,0.8,0,1.1l-1.3,1.3C124.9,8.1,124.7,8.1,124.6,8.1z"/>
</g>
<g>
	<path class="st1" d="M120.4,12.2c-0.2,0-0.4-0.1-0.5-0.2c-0.3-0.3-0.3-0.8,0-1.1l1.3-1.3c0.3-0.3,0.8-0.3,1.1,0
		c0.3,0.3,0.3,0.8,0,1.1L121,12C120.8,12.2,120.6,12.2,120.4,12.2z"/>
</g>
<g>
	<path class="st1" d="M125.9,12.2c-0.2,0-0.4-0.1-0.5-0.2l-1.3-1.3c-0.3-0.3-0.3-0.8,0-1.1s0.8-0.3,1.1,0l1.3,1.3
		c0.3,0.3,0.3,0.8,0,1.1C126.2,12.2,126.1,12.2,125.9,12.2z"/>
</g>
<g>
	<path class="st1" d="M121.8,8.1c-0.2,0-0.4-0.1-0.5-0.2l-1.3-1.3c-0.3-0.3-0.3-0.8,0-1.1c0.3-0.3,0.8-0.3,1.1,0l1.3,1.3
		c0.3,0.3,0.3,0.8,0,1.1C122.1,8.1,122,8.1,121.8,8.1z"/>
</g>
<g>
	<path class="st1" d="M11.4,13.6c-0.2,0-0.4-0.1-0.5-0.2c-0.3-0.3-0.3-0.8,0-1.1l1.3-1.3c0.3-0.3,0.8-0.3,1.1,0
		c0.3,0.3,0.3,0.8,0,1.1l-1.3,1.3C11.8,13.6,11.6,13.6,11.4,13.6z"/>
</g>
<g>
	<path class="st1" d="M7.3,17.7c-0.2,0-0.4-0.1-0.5-0.2c-0.3-0.3-0.3-0.8,0-1.1l1.3-1.3c0.3-0.3,0.8-0.3,1.1,0
		c0.3,0.3,0.3,0.8,0,1.1l-1.3,1.3C7.7,17.7,7.5,17.7,7.3,17.7z"/>
</g>
<g>
	<path class="st1" d="M12.7,17.7c-0.2,0-0.4-0.1-0.5-0.2l-1.3-1.3c-0.3-0.3-0.3-0.8,0-1.1c0.3-0.3,0.8-0.3,1.1,0l1.3,1.3
		c0.3,0.3,0.3,0.8,0,1.1C13.1,17.7,12.9,17.7,12.7,17.7z"/>
</g>
<g>
	<path class="st1" d="M8.6,13.6c-0.2,0-0.4-0.1-0.5-0.2l-1.3-1.3c-0.3-0.3-0.3-0.8,0-1.1c0.3-0.3,0.8-0.3,1.1,0l1.3,1.3
		c0.3,0.3,0.3,0.8,0,1.1C9,13.6,8.8,13.6,8.6,13.6z"/>
</g>
<polygon class="st2" points="25.6,32.2 11.7,32.2 25.6,88.7 "/>
<polygon class="st2" points="76.5,91.5 46.9,91.5 51.2,96.9 72.2,96.9 "/>
<g>
	<polygon class="st2" points="97.7,32.2 111.7,32.2 97.7,88.7 	"/>
</g>
<g>
	<path class="st0" d="M97.7,83.7V15.3c0-1.2-1-2.2-2.2-2.2H27.8c-1.2,0-2.2,1-2.2,2.2c0,3.5,0,49.4,0,68.4H97.7z"/>
</g>
<g>
	<path class="st2" d="M97.7,30.9V15.3c0-1.2-1-2.2-2.2-2.2H27.8c-1.2,0-2.2,1-2.2,2.2v15.6L97.7,30.9L97.7,30.9z"/>
</g>
<g>
	<path class="st3" d="M97.7,15.3v6.3H47.6L46,17.3H33.4l-1.5,4.2h-6.2v-6.3c0-1.2,1-2.2,2.2-2.2h67.7C96.8,13.1,97.7,14.1,97.7,15.3
		z"/>
</g>
<g>
	<polygon class="st4" points="63.3,21.6 47.6,21.6 49.1,17.3 61.8,17.3 	"/>
</g>
<g>
	<rect x="36.1" y="23.8" class="st0" width="49.2" height="5.1"/>
</g>
<g>
	<path class="st5" d="M37.8,25.1h0.3v1h0c0-0.1,0.1-0.2,0.2-0.2c0.1-0.1,0.2-0.1,0.3-0.1c0.2,0,0.6,0.1,0.6,0.7v1h-0.3v-0.9
		c0-0.3-0.1-0.5-0.4-0.5c-0.2,0-0.3,0.1-0.4,0.3c0,0,0,0.1,0,0.1v1h-0.3C37.8,27.5,37.8,25.1,37.8,25.1z"/>
	<path class="st5" d="M40,25.4v0.5h0.4v0.2H40V27c0,0.2,0.1,0.3,0.2,0.3c0.1,0,0.1,0,0.2,0l0,0.2c-0.1,0-0.1,0-0.3,0
		c-0.1,0-0.2,0-0.3-0.1c-0.1-0.1-0.1-0.2-0.1-0.4v-0.9h-0.3v-0.2h0.3v-0.4L40,25.4z"/>
	<path class="st5" d="M41.1,25.4v0.5h0.4v0.2h-0.4V27c0,0.2,0.1,0.3,0.2,0.3c0.1,0,0.1,0,0.2,0l0,0.2c-0.1,0-0.1,0-0.3,0
		c-0.1,0-0.2,0-0.3-0.1c-0.1-0.1-0.1-0.2-0.1-0.4v-0.9h-0.3v-0.2h0.3v-0.4L41.1,25.4z"/>
	<path class="st5" d="M41.9,26.4c0-0.2,0-0.4,0-0.5h0.3l0,0.3h0c0.1-0.2,0.3-0.3,0.6-0.3c0.4,0,0.7,0.3,0.7,0.8
		c0,0.6-0.4,0.9-0.7,0.9c-0.2,0-0.4-0.1-0.5-0.3h0v0.9h-0.3V26.4z M42.2,26.8c0,0,0,0.1,0,0.1c0.1,0.2,0.2,0.3,0.4,0.3
		c0.3,0,0.5-0.3,0.5-0.6c0-0.3-0.2-0.6-0.5-0.6c-0.2,0-0.4,0.1-0.4,0.4c0,0,0,0.1,0,0.1C42.2,26.5,42.2,26.8,42.2,26.8z"/>
	<path class="st5" d="M43.7,26.1c0-0.1,0.1-0.2,0.2-0.2s0.2,0.1,0.2,0.2c0,0.1-0.1,0.2-0.2,0.2C43.8,26.3,43.7,26.2,43.7,26.1z
		 M43.7,27.3c0-0.1,0.1-0.2,0.2-0.2s0.2,0.1,0.2,0.2c0,0.1-0.1,0.2-0.2,0.2C43.8,27.5,43.7,27.4,43.7,27.3z"/>
	<path class="st5" d="M44.2,27.6l0.9-2.4h0.2l-0.9,2.4H44.2z"/>
	<path class="st5" d="M45.4,27.6l0.9-2.4h0.2l-0.9,2.4H45.4z"/>
	<path class="st5" d="M47.6,25.9l0.2,0.8c0,0.2,0.1,0.3,0.1,0.5h0c0-0.2,0.1-0.3,0.1-0.5l0.3-0.8h0.2l0.3,0.8
		c0.1,0.2,0.1,0.4,0.1,0.5h0c0-0.2,0.1-0.3,0.1-0.5l0.2-0.8h0.3l-0.5,1.6h-0.3l-0.2-0.8c-0.1-0.2-0.1-0.3-0.1-0.5h0
		c0,0.2-0.1,0.4-0.1,0.5l-0.3,0.8h-0.3l-0.5-1.6L47.6,25.9L47.6,25.9z"/>
	<path class="st5" d="M50.1,25.9l0.2,0.8c0,0.2,0.1,0.3,0.1,0.5h0c0-0.2,0.1-0.3,0.1-0.5l0.3-0.8h0.2l0.3,0.8
		c0.1,0.2,0.1,0.4,0.1,0.5h0c0-0.2,0.1-0.3,0.1-0.5l0.2-0.8h0.3l-0.5,1.6h-0.3l-0.2-0.8c-0.1-0.2-0.1-0.3-0.1-0.5h0
		c0,0.2-0.1,0.4-0.1,0.5l-0.3,0.8h-0.3l-0.5-1.6L50.1,25.9L50.1,25.9z"/>
	<path class="st5" d="M52.6,25.9l0.2,0.8c0,0.2,0.1,0.3,0.1,0.5h0c0-0.2,0.1-0.3,0.1-0.5l0.3-0.8h0.2l0.3,0.8
		c0.1,0.2,0.1,0.4,0.1,0.5h0c0-0.2,0.1-0.3,0.1-0.5l0.2-0.8h0.3l-0.5,1.6h-0.3l-0.2-0.8c-0.1-0.2-0.1-0.3-0.1-0.5h0
		c0,0.2-0.1,0.4-0.1,0.5l-0.3,0.8h-0.3l-0.5-1.6L52.6,25.9L52.6,25.9z"/>
	<path class="st5" d="M54.8,27.3c0-0.1,0.1-0.2,0.2-0.2s0.2,0.1,0.2,0.2c0,0.1-0.1,0.2-0.2,0.2C54.8,27.5,54.8,27.4,54.8,27.3z"/>
</g>
<g>
	<rect x="31.2" y="34.9" class="st6" width="61" height="21.7"/>
</g>
<g>
	<rect x="33.5" y="61.8" class="st1" width="24.3" height="1.5"/>
</g>
<g>
	<rect x="65.6" y="61.8" class="st1" width="24.3" height="1.5"/>
</g>
<g>
	<rect x="33.5" y="67" class="st1" width="24.3" height="1.5"/>
</g>
<g>
	<rect x="65.6" y="67" class="st1" width="24.3" height="1.5"/>
</g>
<g>
	<rect x="33.5" y="72.1" class="st1" width="24.3" height="1.5"/>
</g>
<g>
	<rect x="65.6" y="72.1" class="st1" width="24.3" height="1.5"/>
</g>
<g>
	<rect x="33.5" y="77.2" class="st1" width="24.3" height="1.5"/>
</g>
<g>
	<rect x="65.6" y="77.2" class="st1" width="24.3" height="1.5"/>
</g>
<g>
	<rect x="33.5" y="82.4" class="st1" width="16.6" height="1.5"/>
</g>
<g>
	<rect x="65.6" y="82.4" class="st1" width="16.6" height="1.5"/>
</g>
<path class="st1" d="M69.8,111.5l-8.5-4c0,0,0,0,0,0c-0.1,0-0.2-0.1-0.2-0.1H10.9c-2.3,0-4.1,2.1-4.1,4.7c0,2.6,1.9,4.7,4.1,4.7
	h50.3c0.1,0,0.2,0,0.2-0.1l8.5-3.9c0.2-0.1,0.4-0.4,0.4-0.7C70.2,111.8,70.1,111.6,69.8,111.5z M13.2,115.3h-2.3
	c-1.5,0-2.8-1.4-2.8-3.2c0-1.8,1.3-3.2,2.8-3.2h2.3V115.3z M60.5,115.3h-46v-2.4h46V115.3z M60.5,111.4h-46v-2.5h46V111.4z
	 M61.8,115v-5.7l6.1,2.8L61.8,115z"/>
<rect x="14.5" y="112.9" class="st6" width="46" height="2.4"/>
<rect x="14.5" y="108.9" class="st7" width="46" height="2.5"/>
<path class="st1" d="M114,81.2V35.7c0-0.8-0.7-1.5-1.5-1.5H100c-0.8,0-1.5-0.7-1.5-1.5V13.9c0-0.8-0.7-1.5-1.5-1.5H26.4
	c-0.8,0-1.5,0.7-1.5,1.5v18.9c0,0.8-0.7,1.5-1.5,1.5H10.9c-0.8,0-1.5,0.7-1.5,1.5v53.6c0,0.8-0.7,1.5-1.5,1.5H3.9
	c-0.8,0-1.5,0.7-1.5,1.5v7.1c0,2,1.6,3.6,3.6,3.6h79.6 M100,35.8h11c0.8,0,1.5,0.7,1.5,1.5v42.5c0,0.8-0.7,1.5-1.5,1.5h-11
	c-0.8,0-1.5-0.7-1.5-1.5V37.2C98.5,36.4,99.2,35.8,100,35.8z M85.6,90.8H27.9c-0.8,0-1.5-0.7-1.5-1.5v-74h0c0-0.8,0.6-1.4,1.4-1.4
	h67.7c0.8,0,1.5,0.7,1.5,1.5v65.8 M10.9,89.3V37.2c0-0.8,0.7-1.5,1.5-1.5h11c0.8,0,1.5,0.7,1.5,1.5v52.1c0,0.8-0.7,1.5-1.5,1.5h-11
	C11.6,90.8,10.9,90.1,10.9,89.3z M6,101.5c-1.2,0-2.1-1-2.1-2.1v-5.6c0-0.8,0.7-1.5,1.5-1.5h78.7c0.8,0,1.5,0.7,1.5,1.5v6.2
	c0,0.8-0.7,1.5-1.5,1.5H6z"/>
<line class="st8" x1="90" y1="96.9" x2="123.2" y2="96.9"/>
<line class="st8" x1="90" y1="101.5" x2="123.2" y2="101.5"/>
<line class="st8" x1="90" y1="106.1" x2="123.2" y2="106.1"/>
<line class="st8" x1="90" y1="110.7" x2="113.2" y2="110.7"/>
<path class="st6" d="M128.5,94.8l-4.2,25.8H76.9l4.2-25.8h4.8l2.1-4.2h12.6l2.1,4.2H128.5z"/>
<path class="st9" d="M100.6,90.6h-8.4V73.8h31.5v21h-21L100.6,90.6z"/>
<path class="st7" d="M115.3,68.9v4.8H92.2v16.8H88l-2.1,4.2h-2.1c0-0.9,0-24.9,0-25.8H115.3z"/>
<path class="st10" d="M94.3,103.2v13.2h16.8c0-2.9,0-10.7,0-13.2C109.6,103.2,98.1,103.2,94.3,103.2z"/>
<path class="st7" d="M104.8,86.4h-8.4c0-2.3,1.9-4.2,4.2-4.2S104.8,84,104.8,86.4z"/>
<circle class="st11" cx="100.6" cy="80.1" r="2.1"/>
<path class="st10" d="M83.8,86.4v8.4h-2.7l-4.2,25.8V86.4H83.8z"/>
<circle cx="119.5" cy="90.6" r="1"/>
<path d="M96.4,87.4h8.4c0.6,0,1-0.5,1-1c0-1.9-1.1-3.6-2.6-4.5c0.3-0.5,0.5-1.1,0.5-1.8c0-1.7-1.4-3.1-3.1-3.1s-3.1,1.4-3.1,3.1
	c0,0.6,0.2,1.2,0.5,1.8c-1.6,0.9-2.6,2.6-2.6,4.5C95.3,86.9,95.8,87.4,96.4,87.4z M100.6,79c0.6,0,1,0.5,1,1c0,0.6-0.5,1-1,1
	s-1-0.5-1-1C99.5,79.5,100,79,100.6,79z M100.6,83.2c1.4,0,2.5,0.9,3,2.1h-5.9C98.1,84.1,99.2,83.2,100.6,83.2L100.6,83.2z"/>
<path d="M109,79h10.5c0.6,0,1-0.5,1-1c0-0.6-0.5-1-1-1H109c-0.6,0-1,0.5-1,1C107.9,78.5,108.4,79,109,79z"/>
<path d="M109,83.2h10.5c0.6,0,1-0.5,1-1c0-0.6-0.5-1-1-1H109c-0.6,0-1,0.5-1,1C107.9,82.7,108.4,83.2,109,83.2z"/>
<path d="M109,87.4h10.5c0.6,0,1-0.5,1-1c0-0.6-0.5-1-1-1H109c-0.6,0-1,0.5-1,1C107.9,86.9,108.4,87.4,109,87.4z"/>
<path d="M112.1,116.4v-13.2c0-0.6-0.5-1-1-1h-3.1V99c0-0.6-0.5-1-1-1h-8.4c-0.6,0-1,0.5-1,1v3.1h-3.1c-0.6,0-1,0.5-1,1v13.2
	c0,0.6,0.5,1,1,1h16.8C111.7,117.4,112.1,117,112.1,116.4z M99.5,100h6.3v2.1h-6.3V100z M110,115.3H95.3V109l6.9,3.4
	c0.3,0.1,0.6,0.1,0.9,0l6.9-3.4V115.3z M110,106.7l-7.3,3.7l-7.3-3.7v-2.5H110V106.7z"/>
<circle cx="102.7" cy="120.6" r="1"/>
<path d="M76.9,121.6H98c0.6,0,1-0.5,1-1s-0.5-1-1-1H78.1L82,95.8h3.9c0.4,0,0.8-0.2,0.9-0.6l1.8-3.6h11.3l1.8,3.6
	c0.2,0.4,0.5,0.6,0.9,0.6h24.6l-3.9,23.7h-16c-0.6,0-1,0.5-1,1s0.5,1,1,1h16.9c0.5,0,1-0.4,1-0.9l4.2-25.8c0-0.3,0-0.6-0.2-0.8
	c-0.2-0.2-0.5-0.4-0.8-0.4h-3.8V73.8c0-0.6-0.5-1-1-1h-7.3v-3.8c0-0.6-0.5-1-1-1H83.8c-0.6,0-1,0.5-1,1v16.4h-5.9c-0.6,0-1,0.5-1,1
	v34.2C75.8,121.2,76.3,121.6,76.9,121.6z M122.6,74.8v18.9h-19.3l-1-2.1h13c0.6,0,1-0.5,1-1c0-0.6-0.5-1-1-1c-1.2,0-20.8,0-22,0
	V74.8H122.6z M84.8,70h29.4v2.7h-22c-0.6,0-1,0.5-1,1v15.7H88c-0.4,0-0.8,0.2-0.9,0.6l-1.8,3.6h-0.4V70z M77.9,87.4h4.8v6.3h-1.7
	c-0.5,0-1,0.4-1,0.9l-2.1,13V87.4z"/>
<text transform="matrix(1 0 0 1 37.7989 49.8808)" class="st12 st13">SUBMIT</text>
</svg>
