<?xml version="1.0" encoding="utf-8"?>
<!-- Generator: Adobe Illustrator 24.0.1, SVG Export Plug-In . SVG Version: 6.00 Build 0)  -->
<svg version="1.1" id="Layer_1" xmlns="http://www.w3.org/2000/svg" xmlns:xlink="http://www.w3.org/1999/xlink" x="0px" y="0px"
	 viewBox="0 0 130 130" style="enable-background:new 0 0 130 130;" xml:space="preserve">
<style type="text/css">
	.st0{fill:#FF7058;}
	.st1{fill:#231F20;}
	.st2{fill:#84DBFF;}
	.st3{fill:#E6E9EE;}
	.st4{fill:#FFD05B;}
	.st5{fill:#E82635;}
	.st6{fill:#AF1025;}
	.st7{stroke:#000000;stroke-miterlimit:10;}
	.st8{fill:#EBF5FF;stroke:#000000;stroke-miterlimit:10;}
	.st9{fill:#FFFFFF;stroke:#000000;stroke-width:0.75;stroke-miterlimit:10;}
	.st10{fill:#BBD8F1;stroke:#000000;stroke-width:0.75;stroke-miterlimit:10;}
	.st11{fill:#84DBFF;stroke:#000000;stroke-miterlimit:10;}
	.st12{fill:#FFD05B;stroke:#000000;stroke-miterlimit:10;}
	.st13{fill:#FEC180;stroke:#000000;stroke-width:0.75;stroke-miterlimit:10;}
	.st14{fill:#A0A8B2;}
	.st15{fill:#C7E2FB;}
	.st16{fill:#EBF7FE;}
	.st17{fill:#A5EB78;}
	.st18{opacity:0.1;}
</style>
<circle class="st0" cx="65" cy="6.9" r="1.8"/>
<g>
	<g>
		<path class="st1" d="M90.6,15.1c-0.2,0-0.4-0.1-0.5-0.2c-0.3-0.3-0.3-0.7,0-1l1.2-1.2c0.3-0.3,0.7-0.3,1,0c0.3,0.3,0.3,0.7,0,1
			l-1.2,1.2C91,15,90.8,15.1,90.6,15.1z"/>
	</g>
	<g>
		<path class="st1" d="M86.8,18.8c-0.2,0-0.4-0.1-0.5-0.2c-0.3-0.3-0.3-0.7,0-1l1.2-1.2c0.3-0.3,0.7-0.3,1,0c0.3,0.3,0.3,0.7,0,1
			l-1.2,1.2C87.2,18.8,87,18.8,86.8,18.8z"/>
	</g>
	<g>
		<path class="st1" d="M91.8,18.8c-0.2,0-0.4-0.1-0.5-0.2l-1.2-1.2c-0.3-0.3-0.3-0.7,0-1c0.3-0.3,0.7-0.3,1,0l1.2,1.2
			c0.3,0.3,0.3,0.7,0,1C92.2,18.8,92,18.8,91.8,18.8z"/>
	</g>
	<g>
		<path class="st1" d="M88,15.1c-0.2,0-0.4-0.1-0.5-0.2l-1.2-1.2c-0.3-0.3-0.3-0.7,0-1c0.3-0.3,0.7-0.3,1,0l1.2,1.2
			c0.3,0.3,0.3,0.7,0,1C88.4,15,88.2,15.1,88,15.1z"/>
	</g>
</g>
<g>
	<g>
		<path class="st1" d="M90.6,118.1c-0.2,0-0.4-0.1-0.5-0.2c-0.3-0.3-0.3-0.7,0-1l1.2-1.2c0.3-0.3,0.7-0.3,1,0c0.3,0.3,0.3,0.7,0,1
			l-1.2,1.2C91,118.1,90.8,118.1,90.6,118.1z"/>
	</g>
	<g>
		<path class="st1" d="M86.8,121.9c-0.2,0-0.4-0.1-0.5-0.2c-0.3-0.3-0.3-0.7,0-1l1.2-1.2c0.3-0.3,0.7-0.3,1,0c0.3,0.3,0.3,0.7,0,1
			l-1.2,1.2C87.2,121.8,87,121.9,86.8,121.9z"/>
	</g>
	<g>
		<path class="st1" d="M91.8,121.9c-0.2,0-0.4-0.1-0.5-0.2l-1.2-1.2c-0.3-0.3-0.3-0.7,0-1c0.3-0.3,0.7-0.3,1,0l1.2,1.2
			c0.3,0.3,0.3,0.7,0,1C92.2,121.8,92,121.9,91.8,121.9z"/>
	</g>
	<g>
		<path class="st1" d="M88,118.1c-0.2,0-0.4-0.1-0.5-0.2l-1.2-1.2c-0.3-0.3-0.3-0.7,0-1s0.7-0.3,1,0l1.2,1.2c0.3,0.3,0.3,0.7,0,1
			C88.4,118.1,88.2,118.1,88,118.1z"/>
	</g>
</g>
<g>
	<rect x="19.1" y="60.9" class="st2" width="8.1" height="8.1"/>
</g>
<g>
	<path class="st1" d="M24.5,59.2L23.1,59c0-0.3,0.1-0.6,0.2-0.9l1.4,0.2C24.6,58.6,24.6,58.9,24.5,59.2z M25,56.4l-1.4-0.3
		c0.1-0.3,0.1-0.6,0.2-0.9l1.4,0.3C25.2,55.8,25.1,56.1,25,56.4z M25.7,53.7l-1.4-0.4c0.1-0.3,0.2-0.6,0.3-0.9l1.3,0.4
		C25.9,53.1,25.8,53.4,25.7,53.7z M26.6,51.1l-1.3-0.5c0.1-0.3,0.2-0.6,0.3-0.9l1.3,0.5C26.8,50.5,26.7,50.8,26.6,51.1z M27.6,48.5
		l-1.3-0.6c0.1-0.3,0.3-0.6,0.4-0.9l1.3,0.6C27.9,47.9,27.7,48.2,27.6,48.5z M28.8,46l-1.3-0.7c0.1-0.3,0.3-0.6,0.5-0.8l1.2,0.7
		C29.1,45.4,29,45.7,28.8,46z M30.2,43.6L29,42.8c0.2-0.3,0.3-0.5,0.5-0.8l1.2,0.8C30.5,43,30.4,43.3,30.2,43.6z M31.7,41.3
		l-1.2-0.8c0.2-0.3,0.4-0.5,0.6-0.8l1.1,0.8C32.1,40.7,31.9,41,31.7,41.3z M33.4,39l-1.1-0.9c0.2-0.2,0.4-0.5,0.6-0.7l1.1,0.9
		C33.8,38.6,33.6,38.8,33.4,39z M35.3,36.9l-1-1c0.2-0.2,0.4-0.5,0.7-0.7l1,1C35.7,36.5,35.5,36.7,35.3,36.9z M37.2,35l-1-1
		c0.2-0.2,0.5-0.4,0.7-0.6l0.9,1.1C37.7,34.6,37.5,34.8,37.2,35z M39.3,33.1l-0.9-1.1c0.2-0.2,0.5-0.4,0.7-0.6l0.9,1.1
		C39.8,32.8,39.6,33,39.3,33.1z M41.5,31.5l-0.8-1.2c0.3-0.2,0.5-0.4,0.8-0.5l0.8,1.2C42.1,31.1,41.8,31.3,41.5,31.5z M43.9,29.9
		l-0.7-1.2c0.3-0.2,0.5-0.3,0.8-0.5l0.7,1.2C44.4,29.6,44.1,29.8,43.9,29.9z M46.3,28.6l-0.7-1.3c0.3-0.1,0.6-0.3,0.9-0.4l0.6,1.3
		C46.8,28.3,46.6,28.4,46.3,28.6z M48.8,27.4l-0.6-1.3c0.3-0.1,0.6-0.3,0.9-0.4l0.5,1.3C49.3,27.1,49.1,27.2,48.8,27.4z M51.4,26.3
		L50.9,25c0.3-0.1,0.6-0.2,0.9-0.3l0.5,1.3C51.9,26.1,51.7,26.2,51.4,26.3z M54,25.5l-0.4-1.4c0.3-0.1,0.6-0.2,0.9-0.3l0.4,1.4
		C54.6,25.3,54.3,25.4,54,25.5z M56.7,24.8l-0.3-1.4c0.3-0.1,0.6-0.1,0.9-0.2l0.3,1.4C57.3,24.6,57,24.7,56.7,24.8z M59.4,24.3
		l-0.2-1.4l0.2,0l0.2,1.4L59.4,24.3z"/>
</g>
<g>
	<path class="st1" d="M59.5,107.7c-0.3,0-0.6-0.1-0.9-0.1l0.2-1.4c0.3,0.1,0.6,0.1,0.9,0.1L59.5,107.7z M56.6,107.2
		c-0.3-0.1-0.6-0.1-0.9-0.2l0.3-1.4c0.3,0.1,0.6,0.1,0.9,0.2L56.6,107.2z M53.8,106.5c-0.3-0.1-0.6-0.2-0.9-0.3l0.4-1.4
		c0.3,0.1,0.6,0.2,0.9,0.3L53.8,106.5z M51.1,105.6c-0.3-0.1-0.6-0.2-0.9-0.3l0.5-1.3c0.3,0.1,0.6,0.2,0.9,0.3L51.1,105.6z
		 M48.4,104.5c-0.3-0.1-0.6-0.3-0.9-0.4l0.6-1.3c0.3,0.1,0.6,0.3,0.8,0.4L48.4,104.5z M45.8,103.3c-0.3-0.1-0.6-0.3-0.8-0.5l0.7-1.2
		c0.3,0.1,0.5,0.3,0.8,0.4L45.8,103.3z M43.3,101.9c-0.3-0.2-0.5-0.3-0.8-0.5l0.8-1.2c0.3,0.2,0.5,0.3,0.8,0.5L43.3,101.9z
		 M40.9,100.3c-0.3-0.2-0.5-0.4-0.8-0.6l0.8-1.1c0.2,0.2,0.5,0.4,0.8,0.5L40.9,100.3z M38.6,98.6c-0.2-0.2-0.5-0.4-0.7-0.6l0.9-1.1
		c0.2,0.2,0.5,0.4,0.7,0.6L38.6,98.6z M36.4,96.7c-0.2-0.2-0.5-0.4-0.7-0.7l1-1c0.2,0.2,0.4,0.4,0.7,0.6L36.4,96.7z M34.4,94.7
		c-0.2-0.2-0.4-0.5-0.7-0.7l1-0.9c0.2,0.2,0.4,0.5,0.6,0.7L34.4,94.7z M32.5,92.5c-0.2-0.2-0.4-0.5-0.6-0.7l1.1-0.9
		c0.2,0.2,0.4,0.5,0.6,0.7L32.5,92.5z M30.7,90.2c-0.2-0.3-0.4-0.5-0.6-0.8l1.2-0.8c0.2,0.3,0.4,0.5,0.5,0.8L30.7,90.2z M29.1,87.8
		c-0.2-0.3-0.3-0.5-0.5-0.8l1.2-0.7c0.2,0.3,0.3,0.5,0.5,0.8L29.1,87.8z M27.7,85.3c-0.1-0.3-0.3-0.6-0.4-0.9l1.3-0.6
		c0.1,0.3,0.3,0.5,0.4,0.8L27.7,85.3z M26.4,82.8c-0.1-0.3-0.3-0.6-0.4-0.9l1.3-0.5c0.1,0.3,0.2,0.6,0.4,0.8L26.4,82.8z M25.3,80.1
		c-0.1-0.3-0.2-0.6-0.3-0.9l1.3-0.5c0.1,0.3,0.2,0.6,0.3,0.9L25.3,80.1z M24.4,77.4c-0.1-0.3-0.2-0.6-0.3-0.9l1.4-0.4
		c0.1,0.3,0.2,0.6,0.3,0.9L24.4,77.4z M23.7,74.6c-0.1-0.3-0.1-0.6-0.2-0.9l1.4-0.3c0.1,0.3,0.1,0.6,0.2,0.9L23.7,74.6z M23.2,71.8
		c0-0.2-0.1-0.5-0.1-0.7l1.4-0.2c0,0.2,0.1,0.5,0.1,0.7L23.2,71.8z"/>
</g>
<g>
	<path class="st1" d="M71.5,107.6l-0.2-1.4c0.2,0,0.5-0.1,0.7-0.1l0.2,1.4C72,107.6,71.8,107.6,71.5,107.6z M74.2,107.2l-0.3-1.4
		c0.3-0.1,0.6-0.1,0.9-0.2l0.3,1.4C74.8,107.1,74.5,107.1,74.2,107.2z M77,106.5l-0.4-1.4c0.3-0.1,0.6-0.2,0.9-0.3l0.4,1.4
		C77.6,106.3,77.3,106.4,77,106.5z M79.7,105.7l-0.5-1.3c0.3-0.1,0.6-0.2,0.9-0.3l0.5,1.3C80.3,105.4,80,105.5,79.7,105.7z
		 M82.4,104.6l-0.6-1.3c0.3-0.1,0.6-0.2,0.8-0.4l0.6,1.3C83,104.4,82.7,104.5,82.4,104.6z M85,103.4l-0.6-1.3
		c0.3-0.1,0.5-0.3,0.8-0.4l0.7,1.2C85.5,103.1,85.3,103.3,85,103.4z M87.5,102l-0.7-1.2c0.3-0.2,0.5-0.3,0.8-0.5l0.8,1.2
		C88,101.7,87.8,101.8,87.5,102z M89.9,100.4l-0.8-1.2c0.3-0.2,0.5-0.4,0.8-0.5l0.8,1.1C90.4,100.1,90.2,100.3,89.9,100.4z
		 M92.2,98.7l-0.9-1.1c0.2-0.2,0.5-0.4,0.7-0.6l0.9,1.1C92.7,98.3,92.5,98.5,92.2,98.7z M94.4,96.9l-1-1c0.2-0.2,0.5-0.4,0.7-0.6
		l1,1C94.9,96.4,94.6,96.6,94.4,96.9z M96.5,94.9l-1-1c0.2-0.2,0.4-0.4,0.6-0.7l1,1C96.9,94.4,96.7,94.6,96.5,94.9z M98.4,92.7
		l-1.1-0.9c0.2-0.2,0.4-0.5,0.6-0.7L99,92C98.8,92.2,98.6,92.5,98.4,92.7z M100.1,90.4L99,89.6c0.2-0.2,0.4-0.5,0.5-0.8l1.2,0.8
		C100.5,89.9,100.3,90.2,100.1,90.4z M101.8,88.1l-1.2-0.8c0.2-0.3,0.3-0.5,0.5-0.8l1.2,0.7C102.1,87.5,101.9,87.8,101.8,88.1z
		 M103.2,85.6l-1.2-0.7c0.1-0.3,0.3-0.5,0.4-0.8l1.3,0.6C103.5,85,103.4,85.3,103.2,85.6z M104.5,83l-1.3-0.6
		c0.1-0.3,0.3-0.6,0.4-0.8l1.3,0.6C104.8,82.4,104.6,82.7,104.5,83z M105.6,80.3l-1.3-0.5c0.1-0.3,0.2-0.6,0.3-0.9l1.3,0.5
		C105.8,79.7,105.7,80,105.6,80.3z M106.5,77.6l-1.4-0.4c0.1-0.3,0.2-0.6,0.3-0.9l1.4,0.4C106.7,77,106.6,77.3,106.5,77.6z
		 M107.2,74.8l-1.4-0.3c0.1-0.3,0.1-0.6,0.2-0.9l1.4,0.3C107.4,74.2,107.3,74.5,107.2,74.8z M107.8,72l-1.4-0.2
		c0-0.3,0.1-0.6,0.1-0.9l1.4,0.2C107.9,71.3,107.8,71.7,107.8,72z"/>
</g>
<g>
	<path class="st1" d="M106.5,59.2l0-0.2l1.4-0.2l0,0.2L106.5,59.2z M106.1,57.1c-0.1-0.3-0.1-0.6-0.2-0.9l1.4-0.3
		c0.1,0.3,0.1,0.6,0.2,0.9L106.1,57.1z M105.5,54.4c-0.1-0.3-0.2-0.6-0.3-0.9l1.4-0.4c0.1,0.3,0.2,0.6,0.3,0.9L105.5,54.4z
		 M104.7,51.8c-0.1-0.3-0.2-0.6-0.3-0.9l1.3-0.5c0.1,0.3,0.2,0.6,0.3,0.9L104.7,51.8z M103.7,49.2c-0.1-0.3-0.2-0.6-0.4-0.8l1.3-0.6
		c0.1,0.3,0.3,0.6,0.4,0.9L103.7,49.2z M102.5,46.6c-0.1-0.3-0.3-0.5-0.4-0.8l1.2-0.7c0.1,0.3,0.3,0.6,0.4,0.9L102.5,46.6z
		 M101.2,44.2c-0.2-0.3-0.3-0.5-0.5-0.8l1.2-0.7c0.2,0.3,0.3,0.5,0.5,0.8L101.2,44.2z M99.7,41.9c-0.2-0.3-0.4-0.5-0.5-0.8l1.1-0.8
		c0.2,0.3,0.4,0.5,0.6,0.8L99.7,41.9z M98,39.6c-0.2-0.2-0.4-0.5-0.6-0.7l1.1-0.9c0.2,0.2,0.4,0.5,0.6,0.7L98,39.6z M96.2,37.5
		c-0.2-0.2-0.4-0.5-0.6-0.7l1-1c0.2,0.2,0.4,0.5,0.7,0.7L96.2,37.5z M94.3,35.5c-0.2-0.2-0.4-0.4-0.7-0.6l1-1
		c0.2,0.2,0.5,0.4,0.7,0.7L94.3,35.5z M92.2,33.6c-0.2-0.2-0.5-0.4-0.7-0.6l0.9-1.1c0.2,0.2,0.5,0.4,0.7,0.6L92.2,33.6z M90.1,31.9
		c-0.2-0.2-0.5-0.4-0.8-0.5l0.8-1.2c0.3,0.2,0.5,0.4,0.8,0.6L90.1,31.9z M87.8,30.3c-0.3-0.2-0.5-0.3-0.8-0.5l0.7-1.2
		c0.3,0.2,0.5,0.3,0.8,0.5L87.8,30.3z M85.4,28.9c-0.3-0.1-0.5-0.3-0.8-0.4l0.7-1.3c0.3,0.1,0.6,0.3,0.8,0.5L85.4,28.9z M82.9,27.7
		c-0.3-0.1-0.6-0.3-0.8-0.4l0.6-1.3c0.3,0.1,0.6,0.3,0.9,0.4L82.9,27.7z M80.3,26.6c-0.3-0.1-0.6-0.2-0.9-0.3l0.5-1.3
		c0.3,0.1,0.6,0.2,0.9,0.3L80.3,26.6z M77.7,25.7c-0.3-0.1-0.6-0.2-0.9-0.3l0.4-1.4c0.3,0.1,0.6,0.2,0.9,0.3L77.7,25.7z M75,24.9
		c-0.3-0.1-0.6-0.1-0.9-0.2l0.3-1.4c0.3,0.1,0.6,0.1,0.9,0.2L75,24.9z M72.2,24.4c-0.3-0.1-0.6-0.1-0.9-0.1l0.2-1.4
		c0.3,0,0.6,0.1,0.9,0.1L72.2,24.4z"/>
</g>
<g>
	<rect x="61.4" y="18.6" class="st2" width="8.1" height="8.1"/>
</g>
<g>
	<rect x="61.4" y="103.3" class="st2" width="8.1" height="8.1"/>
</g>
<g>
	<rect x="103.8" y="60.9" class="st2" width="8.1" height="8.1"/>
</g>
<g>
	<path class="st3" d="M121.1,25c-1.3,0-2.4-1.1-2.4-2.4c0-1.3,1.1-2.4,2.4-2.4c1.3,0,2.4,1.1,2.4,2.4C123.5,23.9,122.5,25,121.1,25z
		"/>
</g>
<g>
	<path class="st3" d="M107.9,11.8c-1.3,0-2.4-1.1-2.4-2.4s1.1-2.4,2.4-2.4c1.3,0,2.4,1.1,2.4,2.4S109.2,11.8,107.9,11.8z"/>
</g>
<g>
	<circle class="st3" cx="23.1" cy="9.4" r="2.4"/>
</g>
<g>
	<path class="st3" d="M107.9,123c-1.3,0-2.4-1.1-2.4-2.4c0-1.3,1.1-2.4,2.4-2.4c1.3,0,2.4,1.1,2.4,2.4
		C110.3,122,109.2,123,107.9,123z"/>
</g>
<g>
	<path class="st3" d="M23.1,123c-1.3,0-2.4-1.1-2.4-2.4c0-1.3,1.1-2.4,2.4-2.4c1.3,0,2.4,1.1,2.4,2.4C25.5,122,24.4,123,23.1,123z"
		/>
</g>
<g>
	<circle class="st3" cx="9.9" cy="22.6" r="2.4"/>
</g>
<g>
	<path class="st3" d="M121.1,109.3c-1.3,0-2.4-1.1-2.4-2.4c0-1.3,1.1-2.4,2.4-2.4c1.3,0,2.4,1.1,2.4,2.4
		C123.5,108.3,122.5,109.3,121.1,109.3z"/>
</g>
<path class="st1" d="M121.1,102c-2.5,0-4.6,1.9-4.9,4.3h-7.7V71.6h5.9V58.4h-5.9v-35h7.7c0.3,2.4,2.4,4.3,4.9,4.3c2.7,0,5-2.2,5-5
	s-2.2-5-5-5c-2.5,0-4.6,1.9-4.9,4.3h-7.7v-7.7c2.4-0.3,4.3-2.4,4.3-4.9c0-2.7-2.2-5-5-5c-2.7,0-5,2.2-5,5c0,2.5,1.9,4.6,4.3,4.9v7.7
	h-35V16H58.9v5.9h-35v-7.7c2.4-0.3,4.3-2.4,4.3-4.9c0-2.7-2.2-5-5-5c-2.7,0-5,2.2-5,5c0,2.5,1.9,4.6,4.3,4.9v7.7h-7.7
	c-0.3-2.4-2.4-4.3-4.9-4.3c-2.7,0-5,2.2-5,5s2.2,5,5,5c2.5,0,4.6-1.9,4.9-4.3h7.7v35h-5.9v13.3h5.9v34.6h-7.7
	c-0.3-2.4-2.4-4.3-4.9-4.3c-2.7,0-5,2.2-5,5c0,2.7,2.2,5,5,5c2.5,0,4.6-1.9,4.9-4.3h7.7v8.1c-2.4,0.3-4.3,2.4-4.3,4.9
	c0,2.7,2.2,5,5,5c2.7,0,5-2.2,5-5c0-2.5-1.9-4.6-4.3-4.9v-8.1h35v6.4h13.3v-6.4h35v8.1c-2.4,0.3-4.3,2.4-4.3,4.9c0,2.7,2.2,5,5,5
	c2.7,0,5-2.2,5-5c0-2.5-1.9-4.6-4.3-4.9v-8.1h7.7c0.3,2.4,2.4,4.3,4.9,4.3c2.7,0,5-2.2,5-5C126.1,104.2,123.9,102,121.1,102z
	 M121.1,19.1c2,0,3.6,1.6,3.6,3.6s-1.6,3.6-3.6,3.6s-3.6-1.6-3.6-3.6S119.2,19.1,121.1,19.1z M104.3,9.4c0-2,1.6-3.6,3.6-3.6
	c2,0,3.6,1.6,3.6,3.6c0,2-1.6,3.6-3.6,3.6C105.9,12.9,104.3,11.3,104.3,9.4z M19.6,9.4c0-2,1.6-3.6,3.6-3.6s3.6,1.6,3.6,3.6
	c0,2-1.6,3.6-3.6,3.6S19.6,11.3,19.6,9.4z M9.9,26.2c-2,0-3.6-1.6-3.6-3.6s1.6-3.6,3.6-3.6s3.6,1.6,3.6,3.6S11.8,26.2,9.9,26.2z
	 M9.9,110.5c-2,0-3.6-1.6-3.6-3.6c0-2,1.6-3.6,3.6-3.6s3.6,1.6,3.6,3.6C13.4,108.9,11.8,110.5,9.9,110.5z M26.7,120.6
	c0,2-1.6,3.6-3.6,3.6s-3.6-1.6-3.6-3.6s1.6-3.6,3.6-3.6C25.1,117.1,26.7,118.7,26.7,120.6z M111.4,120.6c0,2-1.6,3.6-3.6,3.6
	c-2,0-3.6-1.6-3.6-3.6s1.6-3.6,3.6-3.6C109.8,117.1,111.4,118.7,111.4,120.6z M113.1,70.2h-10.4V59.8h10.4V70.2z M60.3,17.4h10.4
	v10.4H60.3V17.4z M17.9,59.8h10.4v10.4H17.9C17.9,70.2,17.9,59.8,17.9,59.8z M70.7,112.6H60.3v-10.4h10.4V112.6z M72.1,106.2v-5.5
	H58.9v5.5h-35V71.6h5.9V58.4h-5.9v-35h35v5.9h13.3v-5.9h35v35h-5.9v13.3h5.9v34.6L72.1,106.2L72.1,106.2z M121.1,110.5
	c-2,0-3.6-1.6-3.6-3.6c0-2,1.6-3.6,3.6-3.6s3.6,1.6,3.6,3.6C124.7,108.9,123.1,110.5,121.1,110.5z"/>
<g>
	<path class="st3" d="M9.9,109.3c-1.3,0-2.4-1.1-2.4-2.4c0-1.3,1.1-2.4,2.4-2.4s2.4,1.1,2.4,2.4C12.3,108.3,11.2,109.3,9.9,109.3z"
		/>
</g>
<g>
	<g>
		<path class="st1" d="M11.6,46.6h-7c-0.4,0-0.7-0.3-0.7-0.7c0-0.4,0.3-0.7,0.7-0.7h7c0.4,0,0.7,0.3,0.7,0.7
			C12.3,46.3,12,46.6,11.6,46.6z"/>
	</g>
	<g>
		<path class="st1" d="M16.2,46.6h-1.9c-0.4,0-0.7-0.3-0.7-0.7c0-0.4,0.3-0.7,0.7-0.7h1.9c0.4,0,0.7,0.3,0.7,0.7
			C17,46.3,16.6,46.6,16.2,46.6z"/>
	</g>
	<g>
		<path class="st1" d="M13.6,49.2h-1.9c-0.4,0-0.7-0.3-0.7-0.7c0-0.4,0.3-0.7,0.7-0.7h1.9c0.4,0,0.7,0.3,0.7,0.7
			C14.3,48.8,14,49.2,13.6,49.2z"/>
	</g>
</g>
<g>
	<circle class="st4" cx="16.2" cy="88.4" r="2.5"/>
</g>
<path class="st5" d="M95,52.1H36.3v-6.8c0-0.6,0.4-1,1-1H94c0.6,0,1,0.4,1,1V52.1z"/>
<path class="st6" d="M41.2,52.5H36v-6.8c0-0.6,0.4-1,1-1h3.2c0.6,0,1,0.4,1,1V52.5z"/>
<path class="st7" d="M95.3,52.5H36V45c0-0.5,0.4-1,1-1h57.4c0.5,0,1,0.4,1,1V52.5z M36.7,51.8h58V45c0-0.2-0.1-0.3-0.3-0.3H37
	c-0.2,0-0.3,0.1-0.3,0.3V51.8z"/>
<g>
	<path class="st8" d="M94,89.3H37.3c-0.6,0-1-0.4-1-1V52.1H95v36.1C95,88.8,94.6,89.3,94,89.3z"/>
	<path class="st7" d="M94.4,89.6H37c-0.5,0-1-0.4-1-1V51.8h59.3v36.8C95.3,89.2,94.9,89.6,94.4,89.6z M36.7,52.5v36.2
		c0,0.2,0.1,0.3,0.3,0.3h57.4c0.2,0,0.3-0.1,0.3-0.3V52.5H36.7z"/>
</g>
<g>
	<line class="st9" x1="40.9" y1="41" x2="40.9" y2="47.6"/>
	<path class="st10" d="M40.9,48.2c-0.4,0-0.7-0.3-0.7-0.7V41c0-0.4,0.3-0.7,0.7-0.7s0.7,0.3,0.7,0.7v6.5
		C41.6,47.9,41.3,48.2,40.9,48.2z"/>
</g>
<g>
	<line class="st9" x1="45.5" y1="41" x2="45.5" y2="47.6"/>
	<path class="st10" d="M45.5,48.2c-0.4,0-0.7-0.3-0.7-0.7V41c0-0.4,0.3-0.7,0.7-0.7s0.7,0.3,0.7,0.7v6.5
		C46.1,47.9,45.8,48.2,45.5,48.2z"/>
</g>
<g>
	<line class="st9" x1="50" y1="41" x2="50" y2="47.6"/>
	<path class="st10" d="M50,48.2c-0.4,0-0.7-0.3-0.7-0.7V41c0-0.4,0.3-0.7,0.7-0.7s0.7,0.3,0.7,0.7v6.5C50.7,47.9,50.4,48.2,50,48.2z
		"/>
</g>
<g>
	<line class="st9" x1="54.6" y1="41" x2="54.6" y2="47.6"/>
	<path class="st10" d="M54.6,48.2c-0.4,0-0.7-0.3-0.7-0.7V41c0-0.4,0.3-0.7,0.7-0.7s0.7,0.3,0.7,0.7v6.5
		C55.2,47.9,55,48.2,54.6,48.2z"/>
</g>
<g>
	<line class="st9" x1="59.2" y1="41" x2="59.2" y2="47.6"/>
	<path class="st10" d="M59.2,48.2c-0.4,0-0.7-0.3-0.7-0.7V41c0-0.4,0.3-0.7,0.7-0.7s0.7,0.3,0.7,0.7v6.5
		C59.8,47.9,59.5,48.2,59.2,48.2z"/>
</g>
<g>
	<line class="st9" x1="63.7" y1="41" x2="63.7" y2="47.6"/>
	<path class="st10" d="M63.7,48.2c-0.4,0-0.7-0.3-0.7-0.7V41c0-0.4,0.3-0.7,0.7-0.7s0.7,0.3,0.7,0.7v6.5
		C64.4,47.9,64.1,48.2,63.7,48.2z"/>
</g>
<g>
	<line class="st9" x1="68.3" y1="41" x2="68.3" y2="47.6"/>
	<path class="st10" d="M68.3,48.2c-0.4,0-0.7-0.3-0.7-0.7V41c0-0.4,0.3-0.7,0.7-0.7c0.4,0,0.7,0.3,0.7,0.7v6.5
		C68.9,47.9,68.6,48.2,68.3,48.2z"/>
</g>
<g>
	<line class="st9" x1="72.8" y1="41" x2="72.8" y2="47.6"/>
	<path class="st10" d="M72.8,48.2c-0.4,0-0.7-0.3-0.7-0.7V41c0-0.4,0.3-0.7,0.7-0.7c0.4,0,0.7,0.3,0.7,0.7v6.5
		C73.5,47.9,73.2,48.2,72.8,48.2z"/>
</g>
<g>
	<line class="st9" x1="77.4" y1="41" x2="77.4" y2="47.6"/>
	<path class="st10" d="M77.4,48.2c-0.4,0-0.7-0.3-0.7-0.7V41c0-0.4,0.3-0.7,0.7-0.7c0.4,0,0.7,0.3,0.7,0.7v6.5
		C78.1,47.9,77.8,48.2,77.4,48.2z"/>
</g>
<g>
	<line class="st9" x1="82" y1="41" x2="82" y2="47.6"/>
	<path class="st10" d="M82,48.2c-0.4,0-0.7-0.3-0.7-0.7V41c0-0.4,0.3-0.7,0.7-0.7c0.4,0,0.7,0.3,0.7,0.7v6.5
		C82.6,47.9,82.3,48.2,82,48.2z"/>
</g>
<g>
	<line class="st9" x1="86.5" y1="41" x2="86.5" y2="47.6"/>
	<path class="st10" d="M86.5,48.2c-0.4,0-0.7-0.3-0.7-0.7V41c0-0.4,0.3-0.7,0.7-0.7c0.4,0,0.7,0.3,0.7,0.7v6.5
		C87.2,47.9,86.9,48.2,86.5,48.2z"/>
</g>
<g>
	<line class="st9" x1="90.4" y1="41" x2="90.4" y2="47.6"/>
	<path class="st10" d="M90.4,48.2c-0.4,0-0.7-0.3-0.7-0.7V41c0-0.4,0.3-0.7,0.7-0.7c0.4,0,0.7,0.3,0.7,0.7v6.5
		C91.1,47.9,90.8,48.2,90.4,48.2z"/>
</g>
<path class="st11" d="M50.3,61.9h-9.1c-0.6,0-1-0.4-1-1V57c0-0.6,0.4-1,1-1h9.1c0.6,0,1,0.4,1,1v3.9C51.3,61.5,50.9,61.9,50.3,61.9z
	"/>
<path class="st11" d="M63.4,61.9h-9.1c-0.6,0-1-0.4-1-1V57c0-0.6,0.4-1,1-1h9.1c0.6,0,1,0.4,1,1v3.9C64.4,61.5,63.9,61.9,63.4,61.9z
	"/>
<path class="st11" d="M76.4,61.9h-9.1c-0.6,0-1-0.4-1-1V57c0-0.6,0.4-1,1-1h9.1c0.6,0,1,0.4,1,1v3.9C77.4,61.5,77,61.9,76.4,61.9z"
	/>
<path class="st12" d="M89.4,61.9h-9.1c-0.6,0-1-0.4-1-1V57c0-0.6,0.4-1,1-1h9.1c0.6,0,1,0.4,1,1v3.9C90.4,61.5,90,61.9,89.4,61.9z"
	/>
<path class="st11" d="M50.3,69.7h-9.1c-0.6,0-1-0.4-1-1v-3.9c0-0.6,0.4-1,1-1h9.1c0.6,0,1,0.4,1,1v3.9
	C51.3,69.3,50.9,69.7,50.3,69.7z"/>
<path class="st11" d="M63.4,69.7h-9.1c-0.6,0-1-0.4-1-1v-3.9c0-0.6,0.4-1,1-1h9.1c0.6,0,1,0.4,1,1v3.9
	C64.4,69.3,63.9,69.7,63.4,69.7z"/>
<path class="st11" d="M76.4,69.7h-9.1c-0.6,0-1-0.4-1-1v-3.9c0-0.6,0.4-1,1-1h9.1c0.6,0,1,0.4,1,1v3.9C77.4,69.3,77,69.7,76.4,69.7z
	"/>
<path class="st12" d="M89.4,69.7h-9.1c-0.6,0-1-0.4-1-1v-3.9c0-0.6,0.4-1,1-1h9.1c0.6,0,1,0.4,1,1v3.9C90.4,69.3,90,69.7,89.4,69.7z
	"/>
<path class="st11" d="M50.3,77.5h-9.1c-0.6,0-1-0.4-1-1v-3.9c0-0.6,0.4-1,1-1h9.1c0.6,0,1,0.4,1,1v3.9
	C51.3,77.1,50.9,77.5,50.3,77.5z"/>
<path class="st11" d="M63.4,77.5h-9.1c-0.6,0-1-0.4-1-1v-3.9c0-0.6,0.4-1,1-1h9.1c0.6,0,1,0.4,1,1v3.9
	C64.4,77.1,63.9,77.5,63.4,77.5z"/>
<path class="st11" d="M76.4,77.5h-9.1c-0.6,0-1-0.4-1-1v-3.9c0-0.6,0.4-1,1-1h9.1c0.6,0,1,0.4,1,1v3.9C77.4,77.1,77,77.5,76.4,77.5z
	"/>
<path class="st13" d="M89.4,77.5h-9.1c-0.6,0-1-0.4-1-1v-3.9c0-0.6,0.4-1,1-1h9.1c0.6,0,1,0.4,1,1v3.9C90.4,77.1,90,77.5,89.4,77.5z
	"/>
<path class="st11" d="M50.3,85.4h-9.1c-0.6,0-1-0.4-1-1v-3.9c0-0.6,0.4-1,1-1h9.1c0.6,0,1,0.4,1,1v3.9
	C51.3,84.9,50.9,85.4,50.3,85.4z"/>
<path class="st11" d="M63.4,85.4h-9.1c-0.6,0-1-0.4-1-1v-3.9c0-0.6,0.4-1,1-1h9.1c0.6,0,1,0.4,1,1v3.9
	C64.4,84.9,63.9,85.4,63.4,85.4z"/>
<path class="st11" d="M76.4,85.4h-9.1c-0.6,0-1-0.4-1-1v-3.9c0-0.6,0.4-1,1-1h9.1c0.6,0,1,0.4,1,1v3.9C77.4,84.9,77,85.4,76.4,85.4z
	"/>
<path class="st13" d="M89.4,85.4h-9.1c-0.6,0-1-0.4-1-1v-3.9c0-0.6,0.4-1,1-1h9.1c0.6,0,1,0.4,1,1v3.9C90.4,84.9,90,85.4,89.4,85.4z
	"/>
<g>
	<circle class="st14" cx="85.3" cy="80.2" r="12"/>
	<circle class="st15" cx="85.3" cy="80.2" r="9.8"/>
	<path class="st16" d="M92.4,73.4c-3.7-4-9.9-4.2-13.9-0.6s-4.2,9.9-0.6,13.9c0.2,0.2,0.4,0.4,0.6,0.6C86.1,87.2,92.3,81,92.4,73.4z
		"/>
	<path d="M72.8,80.2c0,6.9,5.6,12.5,12.5,12.5c6.9,0,12.5-5.6,12.5-12.5c0-6.9-5.6-12.5-12.5-12.5C78.4,67.7,72.8,73.3,72.8,80.2z
		 M96.7,80.2c0,6.3-5.1,11.4-11.4,11.4c-6.3,0-11.4-5.1-11.4-11.4c0-6.3,5.1-11.4,11.4-11.4C91.6,68.8,96.7,73.9,96.7,80.2z"/>
	<path d="M74.9,80.2c0,5.7,4.6,10.4,10.4,10.4c5.7,0,10.4-4.6,10.4-10.4c0-5.7-4.6-10.4-10.4-10.4C79.6,69.8,74.9,74.5,74.9,80.2z
		 M91.1,75.1l1.1-1.1c1.4,1.6,2.2,3.5,2.3,5.6h-1.6v1.1h1.6c-0.1,2.1-0.9,4-2.3,5.6l-1.1-1.1L90.4,86l1.1,1.1
		c-1.6,1.4-3.5,2.2-5.6,2.3v-1.6h-1.1v1.6c-2.1-0.1-4-0.9-5.6-2.3l1.1-1.1l-0.8-0.8l-1.1,1.1c-1.4-1.6-2.2-3.5-2.3-5.6h1.6v-1.1
		h-1.6c0.1-2.1,0.9-4,2.3-5.6l1.1,1.1l0.8-0.8l-1.1-1.1c1.6-1.4,3.5-2.2,5.6-2.3v1.6h1.1V71c2.1,0.1,4,0.9,5.6,2.3l-1.1,1.1
		L91.1,75.1z"/>
	<path d="M85.8,73.7h-1.1v6.5c0,0.1,0.1,0.3,0.2,0.4l3.3,3.3l0.8-0.8L85.8,80V73.7z"/>
</g>
<path class="st17" d="M50.2,61.7l-4.4,4.4c-0.1,0.1-0.3,0.1-0.4,0l-1.9-1.9L42,65.8l2.9,2.9c0.2,0.2,0.5,0.3,0.8,0.3l0,0
	c0.3,0,0.6-0.1,0.8-0.3l5.4-5.4L50.2,61.7z"/>
<g class="st18">
	<path d="M51.2,62.7l-5.7,5.7c-0.2,0.2-0.4,0.3-0.6,0.3c0.2,0.1,0.4,0.2,0.6,0.2l0,0c0.3,0,0.6-0.1,0.8-0.3l5.4-5.4L51.2,62.7z"/>
</g>
<path d="M45.6,69.1c-0.3,0-0.6-0.1-0.9-0.4l-2.9-2.9c-0.1-0.1-0.1-0.2,0-0.2l1.5-1.5c0.1-0.1,0.2-0.1,0.2,0l0.6,0.6
	c0.1,0.1,0.1,0.2,0,0.2c-0.1,0.1-0.2,0.1-0.2,0l-0.5-0.5l-1.3,1.3l2.8,2.8c0.2,0.2,0.4,0.3,0.6,0.3c0.2,0,0.5-0.1,0.6-0.3l3.7-3.7
	c0.1-0.1,0.2-0.1,0.2,0c0.1,0.1,0.1,0.2,0,0.2l-3.7,3.7C46.2,69,45.9,69.1,45.6,69.1z"/>
<path d="M45.6,66.4c-0.1,0-0.2,0-0.3-0.1l-0.9-0.9c-0.1-0.1-0.1-0.2,0-0.2c0.1-0.1,0.2-0.1,0.2,0l0.9,0.9c0,0,0.1,0,0.1,0
	c0,0,0.1,0,0.1,0l4.4-4.4c0.1-0.1,0.2-0.1,0.2,0l1.5,1.5c0,0,0,0.1,0,0.1s0,0.1,0,0.1l-1.3,1.3c-0.1,0.1-0.2,0.1-0.2,0
	c-0.1-0.1-0.1-0.2,0-0.2l1.1-1.1L50.2,62l-4.3,4.3C45.8,66.4,45.7,66.4,45.6,66.4z"/>
<path class="st17" d="M76.3,53.9l-4.4,4.4c-0.1,0.1-0.3,0.1-0.4,0l-1.9-1.9l-1.5,1.5l2.9,2.9c0.2,0.2,0.5,0.3,0.8,0.3l0,0
	c0.3,0,0.6-0.1,0.8-0.3l5.4-5.4L76.3,53.9z"/>
<g class="st18">
	<path d="M77.3,54.9l-5.7,5.7c-0.2,0.2-0.4,0.3-0.6,0.3c0.2,0.1,0.4,0.2,0.6,0.2l0,0c0.3,0,0.6-0.1,0.8-0.3l5.4-5.4L77.3,54.9z"/>
</g>
<path d="M71.7,61.3c-0.3,0-0.6-0.1-0.9-0.4L67.9,58c-0.1-0.1-0.1-0.2,0-0.2l1.5-1.5c0.1-0.1,0.2-0.1,0.2,0l0.6,0.6
	c0.1,0.1,0.1,0.2,0,0.2c-0.1,0.1-0.2,0.1-0.2,0l-0.5-0.5l-1.3,1.3l2.8,2.8c0.2,0.2,0.4,0.3,0.6,0.3c0.2,0,0.5-0.1,0.6-0.3L76,57
	c0.1-0.1,0.2-0.1,0.2,0c0.1,0.1,0.1,0.2,0,0.2l-3.7,3.7C72.3,61.1,72,61.3,71.7,61.3z"/>
<path d="M71.7,58.6c-0.1,0-0.2,0-0.3-0.1l-0.9-0.9c-0.1-0.1-0.1-0.2,0-0.2c0.1-0.1,0.2-0.1,0.2,0l0.9,0.9c0,0,0.1,0,0.1,0
	s0.1,0,0.1,0l4.4-4.4c0.1-0.1,0.2-0.1,0.2,0l1.5,1.5c0,0,0,0.1,0,0.1s0,0.1,0,0.1l-1.3,1.3c-0.1,0.1-0.2,0.1-0.2,0
	c-0.1-0.1-0.1-0.2,0-0.2l1.1-1.1l-1.3-1.3L72,58.4C71.9,58.5,71.8,58.6,71.7,58.6z"/>
<path class="st17" d="M63.3,69.6L58.9,74c-0.1,0.1-0.3,0.1-0.4,0l-1.9-1.9L55,73.6l2.9,2.9c0.2,0.2,0.5,0.3,0.8,0.3l0,0
	c0.3,0,0.6-0.1,0.8-0.3l5.4-5.4L63.3,69.6z"/>
<g class="st18">
	<path d="M64.3,70.6l-5.7,5.7c-0.2,0.2-0.4,0.3-0.6,0.3c0.2,0.1,0.4,0.2,0.6,0.2l0,0c0.3,0,0.6-0.1,0.8-0.3l5.4-5.4L64.3,70.6z"/>
</g>
<path d="M58.6,76.9c-0.3,0-0.6-0.1-0.9-0.4l-2.9-2.9c-0.1-0.1-0.1-0.2,0-0.2l1.5-1.5c0.1-0.1,0.2-0.1,0.2,0l0.6,0.6
	c0.1,0.1,0.1,0.2,0,0.2c-0.1,0.1-0.2,0.1-0.2,0l-0.5-0.5l-1.3,1.3l2.8,2.8c0.2,0.2,0.4,0.3,0.6,0.3c0.2,0,0.5-0.1,0.6-0.3l3.7-3.7
	c0.1-0.1,0.2-0.1,0.2,0c0.1,0.1,0.1,0.2,0,0.2l-3.7,3.7C59.3,76.8,59,76.9,58.6,76.9z"/>
<path d="M58.6,74.2c-0.1,0-0.2,0-0.3-0.1l-0.9-0.9c-0.1-0.1-0.1-0.2,0-0.2c0.1-0.1,0.2-0.1,0.2,0l0.9,0.9c0,0,0.1,0,0.1,0
	c0,0,0.1,0,0.1,0l4.4-4.4c0.1-0.1,0.2-0.1,0.2,0l1.5,1.5c0,0,0,0.1,0,0.1c0,0,0,0.1,0,0.1l-1.3,1.3c-0.1,0.1-0.2,0.1-0.2,0
	c-0.1-0.1-0.1-0.2,0-0.2l1.1-1.1l-1.3-1.3L59,74.1C58.9,74.2,58.8,74.2,58.6,74.2z"/>
</svg>
