<?xml version="1.0" encoding="utf-8"?>
<!-- Generator: Adobe Illustrator 24.0.1, SVG Export Plug-In . SVG Version: 6.00 Build 0)  -->
<svg version="1.1" id="Layer_1" xmlns="http://www.w3.org/2000/svg" xmlns:xlink="http://www.w3.org/1999/xlink" x="0px" y="0px"
	 viewBox="0 0 130 130" style="enable-background:new 0 0 130 130;" xml:space="preserve">
<style type="text/css">
	.st0{fill:#6AA0FF;stroke:#000000;stroke-width:2;stroke-linejoin:round;stroke-miterlimit:10;}
	.st1{fill:#DDEAFB;stroke:#000000;stroke-width:2;stroke-linejoin:round;stroke-miterlimit:10;}
	.st2{fill:none;stroke:#000000;stroke-width:2;stroke-linejoin:round;stroke-miterlimit:10;}
	.st3{fill:#FFF9DF;}
	.st4{fill:#FFF0AD;}
	.st5{fill:#6AA0FF;stroke:#000000;stroke-width:0.75;stroke-linejoin:round;stroke-miterlimit:10;}
	.st6{fill:#FFFFFF;stroke:#231F20;stroke-miterlimit:10;}
	.st7{fill:#231F20;}
	.st8{fill:#84DBFF;}
	.st9{fill:#FF7058;}
	.st10{fill:#E6E9EE;}
	.st11{fill:#FFD05B;}
	.st12{fill:none;stroke:#000000;stroke-miterlimit:10;}
	.st13{fill:none;stroke:#000000;stroke-width:2;stroke-linecap:round;stroke-linejoin:round;stroke-miterlimit:10;}
	.st14{fill:none;}
	.st15{fill:#2980B9;}
	.st16{fill:#9FE0F6;}
	.st17{fill:#3498DB;}
	.st18{fill:#333333;}
	.st19{fill:#FFCC5C;}
	.st20{fill:#F7931E;}
	.st21{fill:#F15A24;}
	.st22{fill:#FF7149;}
	.st23{fill:#FF2B59;}
	.st24{fill:#FFFFFF;}
	.st25{fill:#FFEAC3;}
	.st26{fill:#FF9441;}
	.st27{fill:#BFDCFF;}
	.st28{fill:#09213D;}
	.st29{fill:#233952;}
	.st30{fill:#A4BDE0;}
	.st31{fill:#B0D0FF;}
	.st32{fill:#8D6ED1;}
	.st33{fill:#A381E6;}
	.st34{fill:#C4E3FA;}
	.st35{fill:#E3F5FF;}
</style>
<path class="st0" d="M121,27.9v7.2H9v-7.2c0-0.9,0.6-1.6,1.4-1.6h109.2C120.4,26.2,121,26.9,121,27.9z"/>
<path class="st1" d="M121,34.8v66.7c0,0.8-0.6,1.5-1.4,1.5H10.4c-0.8,0-1.4-0.7-1.4-1.5V34.8H121z"/>
<rect x="40.3" y="41" class="st2" width="68.9" height="15.5"/>
<rect x="40" y="61.5" class="st2" width="68.9" height="15.5"/>
<rect x="40.3" y="82.1" class="st2" width="68.9" height="15.5"/>
<rect x="14.2" y="41" class="st3" width="20.3" height="20.3"/>
<rect x="28.6" y="41" class="st4" width="5.8" height="20.3"/>
<path d="M34.4,61.8H14.2c-0.3,0-0.5-0.3-0.5-0.5V41c0-0.3,0.3-0.5,0.5-0.5h20.3c0.3,0,0.5,0.3,0.5,0.5v20.3
	C34.9,61.5,34.7,61.8,34.4,61.8z M14.8,60.8h19.1V41.5H14.8V60.8z"/>
<rect x="17.7" y="44.6" class="st5" width="3.8" height="3.8"/>
<g>
	<path class="st6" d="M35.2,96.5"/>
</g>
<g>
	<g>
		<path class="st7" d="M112.5,113.4c-0.2,0-0.4-0.1-0.5-0.2c-0.3-0.3-0.3-0.8,0-1.1l1.3-1.3c0.3-0.3,0.8-0.3,1.1,0
			c0.3,0.3,0.3,0.8,0,1.1l-1.3,1.3C112.9,113.3,112.7,113.4,112.5,113.4z"/>
	</g>
	<g>
		<path class="st7" d="M108.5,117.4c-0.2,0-0.4-0.1-0.5-0.2c-0.3-0.3-0.3-0.8,0-1.1l1.3-1.3c0.3-0.3,0.8-0.3,1.1,0s0.3,0.8,0,1.1
			l-1.3,1.3C108.8,117.3,108.7,117.4,108.5,117.4z"/>
	</g>
	<g>
		<path class="st7" d="M113.8,117.4c-0.2,0-0.4-0.1-0.5-0.2l-1.3-1.3c-0.3-0.3-0.3-0.8,0-1.1c0.3-0.3,0.8-0.3,1.1,0l1.3,1.3
			c0.3,0.3,0.3,0.8,0,1.1C114.2,117.3,114,117.4,113.8,117.4z"/>
	</g>
	<g>
		<path class="st7" d="M109.7,113.4c-0.2,0-0.4-0.1-0.5-0.2l-1.3-1.3c-0.3-0.3-0.3-0.8,0-1.1s0.8-0.3,1.1,0l1.3,1.3
			c0.3,0.3,0.3,0.8,0,1.1C110.1,113.3,109.9,113.4,109.7,113.4z"/>
	</g>
</g>
<path class="st7" d="M116.4,19.6c0.2,0,0.4-0.1,0.5-0.2l1.3-1.3c0.3-0.3,0.3-0.8,0-1.1c-0.3-0.3-0.8-0.3-1.1,0l-1.3,1.3
	c-0.3,0.3-0.3,0.8,0,1.1C116,19.5,116.2,19.6,116.4,19.6z"/>
<path class="st7" d="M112.4,23.6c0.2,0,0.4-0.1,0.5-0.2l1.3-1.3c0.3-0.3,0.3-0.8,0-1.1c-0.3-0.3-0.8-0.3-1.1,0l-1.3,1.3
	c-0.3,0.3-0.3,0.8,0,1.1C112,23.6,112.2,23.6,112.4,23.6z"/>
<path class="st7" d="M116.9,21.1c-0.3-0.3-0.8-0.3-1.1,0c-0.3,0.3-0.3,0.8,0,1.1l1.3,1.3c0.1,0.1,0.3,0.2,0.5,0.2s0.4-0.1,0.5-0.2
	c0.3-0.3,0.3-0.8,0-1.1L116.9,21.1z"/>
<path class="st7" d="M113.1,19.4c0.1,0.1,0.3,0.2,0.5,0.2s0.4-0.1,0.5-0.2c0.3-0.3,0.3-0.8,0-1.1l-1.3-1.3c-0.3-0.3-0.8-0.3-1.1,0
	c-0.3,0.3-0.3,0.8,0,1.1L113.1,19.4z"/>
<path class="st7" d="M17.8,11.6c0.2,0,0.4-0.1,0.5-0.2l1.3-1.3c0.3-0.3,0.3-0.8,0-1.1s-0.8-0.3-1.1,0l-1.3,1.3
	c-0.3,0.3-0.3,0.8,0,1.1C17.5,11.6,17.6,11.6,17.8,11.6z"/>
<path class="st7" d="M13.8,15.7c0.2,0,0.4-0.1,0.5-0.2l1.3-1.3c0.3-0.3,0.3-0.8,0-1.1s-0.8-0.3-1.1,0l-1.3,1.3
	c-0.3,0.3-0.3,0.8,0,1.1C13.4,15.6,13.6,15.7,13.8,15.7z"/>
<path class="st7" d="M18.6,15.4c0.1,0.1,0.3,0.2,0.5,0.2s0.4-0.1,0.5-0.2c0.3-0.3,0.3-0.8,0-1.1L18.3,13c-0.3-0.3-0.8-0.3-1.1,0
	s-0.3,0.8,0,1.1L18.6,15.4z"/>
<path class="st7" d="M14.6,11.4c0.1,0.1,0.3,0.2,0.5,0.2s0.4-0.1,0.5-0.2c0.3-0.3,0.3-0.8,0-1.1L14.3,9c-0.3-0.3-0.8-0.3-1.1,0
	s-0.3,0.8,0,1.1L14.6,11.4z"/>
<path class="st7" d="M52.4,16.5h8.1c0.4,0,0.8-0.3,0.8-0.8S60.9,15,60.5,15h-8.1c-0.4,0-0.8,0.3-0.8,0.8
	C51.6,16.3,52,16.5,52.4,16.5z"/>
<path class="st7" d="M59.7,18c-0.4,0-0.8,0.3-0.8,0.8s0.3,0.8,0.8,0.8h4c0.4,0,0.7-0.3,0.7-0.8S64.1,18,63.7,18H59.7z"/>
<path class="st7" d="M64.2,16.5H68c0.4,0,0.8-0.3,0.8-0.8S68.4,15,67.9,15h-3.8c-0.4,0-0.8,0.3-0.8,0.8
	C63.3,16.3,63.8,16.5,64.2,16.5z"/>
<path class="st7" d="M56.1,18c-0.4,0-0.8,0.3-0.8,0.8s0.3,0.8,0.8,0.8h0.8c0.4,0,0.8-0.3,0.8-0.8S57.2,18,56.8,18H56.1z"/>
<g>
	<path class="st7" d="M26.7,115.4c0-0.4-0.3-0.8-0.8-0.8h-8.1c-0.4,0-0.8,0.3-0.8,0.8s0.3,0.8,0.8,0.8h8.1
		C26.3,116.2,26.7,115.8,26.7,115.4z"/>
	<path class="st7" d="M29.1,117.6h-4c-0.4,0-0.8,0.3-0.8,0.8s0.3,0.8,0.8,0.8h4c0.4,0,0.8-0.3,0.8-0.8S29.5,117.6,29.1,117.6z"/>
	<path class="st7" d="M33.4,114.7h-3.8c-0.4,0-0.8,0.3-0.8,0.8s0.3,0.8,0.8,0.8h3.8c0.4,0,0.8-0.3,0.8-0.8S33.8,114.7,33.4,114.7z"
		/>
	<path class="st7" d="M22.3,117.6h-0.8c-0.4,0-0.8,0.3-0.8,0.8s0.3,0.8,0.8,0.8h0.8c0.4,0,0.8-0.3,0.8-0.8S22.7,117.6,22.3,117.6z"
		/>
</g>
<g>
	<circle class="st8" cx="94.6" cy="14.1" r="2.1"/>
</g>
<g>
	<circle class="st9" cx="126.6" cy="80.7" r="2.1"/>
</g>
<g>
	<circle class="st10" cx="32" cy="22.1" r="2.1"/>
</g>
<g>
	<circle class="st11" cx="4.3" cy="41.5" r="2.1"/>
</g>
<g>
	<circle class="st10" cx="95.4" cy="111.3" r="2.1"/>
</g>
<path class="st12" d="M69.5,110.7"/>
<line class="st13" x1="56.4" y1="44.8" x2="105.1" y2="44.8"/>
<line class="st13" x1="56.4" y1="48.8" x2="105.1" y2="48.8"/>
<line class="st13" x1="56.4" y1="52.8" x2="105.1" y2="52.8"/>
<line class="st13" x1="55.9" y1="65.4" x2="104.6" y2="65.4"/>
<line class="st13" x1="55.9" y1="69.4" x2="104.6" y2="69.4"/>
<line class="st13" x1="55.9" y1="73.4" x2="104.6" y2="73.4"/>
<line class="st13" x1="54.8" y1="86.1" x2="103.5" y2="86.1"/>
<line class="st13" x1="54.8" y1="90" x2="103.5" y2="90"/>
<line class="st13" x1="54.8" y1="94" x2="103.5" y2="94"/>
<line class="st13" x1="14.6" y1="65.2" x2="34.1" y2="65.2"/>
<line class="st13" x1="14.6" y1="69.2" x2="34.1" y2="69.2"/>
<line class="st13" x1="14.6" y1="73.2" x2="34.1" y2="73.2"/>
<line class="st13" x1="14.6" y1="77.2" x2="25.6" y2="77.2"/>
<g>
	<path d="M33.4,82.6H14.8c-0.6,0-1.1,0.5-1.1,1.1v11.8c0,0.6,0.5,1.1,1.1,1.1h18.6c0.6,0,1.1-0.5,1.1-1.1V83.8
		C34.6,83.1,34.1,82.6,33.4,82.6z M33.9,95.7c0,0.3-0.3,0.5-0.5,0.5H14.8c-0.3,0-0.5-0.3-0.5-0.5V83.9c0-0.3,0.3-0.5,0.5-0.5h18.6
		c0.3,0,0.5,0.3,0.5,0.5V95.7z"/>
	<path class="st14" d="M33.4,83.3H14.8c-0.3,0-0.5,0.3-0.5,0.5v11.8c0,0.3,0.3,0.5,0.5,0.5h18.6c0.3,0,0.5-0.3,0.5-0.5V83.8
		C33.9,83.5,33.7,83.3,33.4,83.3z M24.5,94.5c0,0.3-0.1,0.4-0.4,0.4h-8.8c-0.1,0-0.4-0.1-0.4-0.4V85c0-0.1,0.1-0.4,0.4-0.4h8.8
		c0.1,0,0.4,0.1,0.4,0.4V94.5z M27.1,94.5c0,0.3-0.1,0.4-0.4,0.4h-1.4c-0.1,0-0.4-0.1-0.4-0.4v-1c0-0.1,0.1-0.4,0.4-0.4h1.4
		c0.1,0,0.4,0.1,0.4,0.4V94.5z M27.1,92.1c0,0.3-0.1,0.4-0.4,0.4h-1.4c-0.1,0-0.4-0.1-0.4-0.4v-1c0-0.1,0.1-0.4,0.4-0.4h1.4
		c0.1,0,0.4,0.1,0.4,0.4V92.1z M27.1,89.7c0,0.3-0.1,0.4-0.4,0.4h-1.4c-0.1,0-0.4-0.1-0.4-0.4v-1c0-0.1,0.1-0.4,0.4-0.4h1.4
		c0.1,0,0.4,0.1,0.4,0.4V89.7z M30.5,94.8h-2.6c-0.1,0-0.4-0.1-0.4-0.4c0-0.1,0.1-0.4,0.4-0.4h2.6c0.3,0,0.4,0.1,0.4,0.4
		S30.8,94.8,30.5,94.8z M31.9,94.8h-0.4c-0.3,0-0.4-0.1-0.4-0.4c0-0.1,0.1-0.4,0.4-0.4h0.4c0.1,0,0.4,0.1,0.4,0.4
		C32.2,94.7,32,94.8,31.9,94.8z M32.9,93.8h-5c-0.1,0-0.4-0.1-0.4-0.4s0.1-0.4,0.4-0.4h5c0.3,0,0.4,0.1,0.4,0.4S33,93.8,32.9,93.8z
		 M27.5,92.1c0-0.1,0.1-0.4,0.4-0.4h2.6c0.3,0,0.4,0.1,0.4,0.4c0,0.3-0.1,0.4-0.4,0.4h-2.6C27.6,92.4,27.5,92.3,27.5,92.1z
		 M31.2,92.1c0-0.1,0.1-0.4,0.4-0.4h0.4c0.1,0,0.4,0.1,0.4,0.4c0,0.3-0.1,0.4-0.4,0.4h-0.4C31.4,92.4,31.2,92.3,31.2,92.1z
		 M32.9,91.4h-5c-0.1,0-0.4-0.1-0.4-0.4c0-0.1,0.1-0.4,0.4-0.4h5c0.3,0,0.4,0.1,0.4,0.4S33,91.4,32.9,91.4z M27.5,89.7
		c0-0.1,0.1-0.4,0.4-0.4h2.6c0.3,0,0.4,0.1,0.4,0.4c0,0.3-0.1,0.4-0.4,0.4h-2.6C27.6,90.1,27.5,89.9,27.5,89.7z M31.2,89.7
		c0-0.1,0.1-0.4,0.4-0.4h0.4c0.1,0,0.4,0.1,0.4,0.4c0,0.3-0.1,0.4-0.4,0.4h-0.4C31.4,90.1,31.2,89.9,31.2,89.7z M32.9,89h-5
		c-0.1,0-0.4-0.1-0.4-0.4c0-0.1,0.1-0.4,0.4-0.4h5c0.3,0,0.4,0.1,0.4,0.4S33,89,32.9,89z M33.3,87.4c0,0.3-0.1,0.4-0.4,0.4h-7.4
		c-0.1,0-0.4-0.1-0.4-0.4V85c0-0.1,0.1-0.4,0.4-0.4h7.4c0.3,0,0.4,0.1,0.4,0.4V87.4z"/>
	<path d="M24.1,84.6h-8.8c-0.1,0-0.4,0.1-0.4,0.4v9.4c0,0.3,0.1,0.4,0.4,0.4h8.8c0.1,0,0.4-0.1,0.4-0.4V85
		C24.5,84.8,24.2,84.6,24.1,84.6z M22.7,94.1h-0.6v-0.4c0-0.1-0.1-0.4-0.4-0.4c-0.3,0-0.4,0.1-0.4,0.4v0.4h-3.4v-0.4
		c0-0.1-0.1-0.4-0.4-0.4c-0.1,0-0.4,0.1-0.4,0.4v0.4h-0.6v-1.4c0-0.4,0.3-0.6,0.6-0.6l0,0l1.4-0.3c0.3,0.5,0.8,0.8,1.4,0.5
		c0.3-0.1,0.4-0.3,0.5-0.5l1.4,0.3H22c0.4,0,0.6,0.3,0.6,0.6v1.4H22.7z M21.1,88.5V89c0,0.8-0.6,1.4-1.4,1.4c-0.8,0-1.4-0.6-1.4-1.4
		C19,89,20.2,88.9,21.1,88.5z M18.3,88.4V88c0-0.5,0.5-1,1-1H20c0.5,0,0.9,0.4,1,0.9C20.3,88.2,19.1,88.3,18.3,88.4z M20.1,91.1v0.4
		c0,0.1-0.1,0.4-0.4,0.4c-0.3,0-0.4-0.1-0.4-0.4v-0.4H20.1z M23.7,94.1h-0.4v-1.4c0-0.8-0.6-1.4-1.3-1.4l-1.4-0.3v-0.3
		c0.6-0.4,1-1,1-1.8v-1c0-0.9-0.8-1.6-1.6-1.6h-0.6c-0.9,0-1.6,0.8-1.6,1.6v1c0,0.8,0.4,1.4,1,1.8v0.4l-1.5,0.3
		c-0.8,0-1.3,0.6-1.3,1.4v1.4h-0.4v-8.8h8.2v8.7H23.7z"/>
	<path d="M32.9,84.6h-7.4c-0.1,0-0.4,0.1-0.4,0.4v2.4c0,0.3,0.1,0.4,0.4,0.4h7.4c0.3,0,0.4-0.1,0.4-0.4V85
		C33.3,84.8,33,84.6,32.9,84.6z M32.5,87h-6.8v-1.6h6.8V87z"/>
	<path d="M26.9,88.4h-1.4c-0.1,0-0.4,0.1-0.4,0.4v1c0,0.3,0.1,0.4,0.4,0.4h1.4c0.1,0,0.4-0.1,0.4-0.4v-1
		C27.1,88.5,27,88.4,26.9,88.4z M26.5,89.4h-0.6V89h0.6V89.4z"/>
	<path d="M33.3,88.7c0,0.1-0.1,0.4-0.4,0.4h-5c-0.1,0-0.4-0.1-0.4-0.4c0-0.1,0.1-0.4,0.4-0.4h5C33,88.4,33.3,88.5,33.3,88.7z"/>
	<path d="M30.9,89.7c0,0.3-0.1,0.4-0.4,0.4h-2.6c-0.1,0-0.4-0.1-0.4-0.4c0-0.1,0.1-0.4,0.4-0.4h2.6C30.8,89.4,30.9,89.6,30.9,89.7z"
		/>
	<path d="M32.2,89.7c0,0.3-0.1,0.4-0.4,0.4h-0.4c-0.3,0-0.4-0.1-0.4-0.4c0-0.1,0.1-0.4,0.4-0.4h0.4C32,89.4,32.2,89.6,32.2,89.7z"/>
	<path d="M26.9,90.8h-1.4c-0.1,0-0.4,0.1-0.4,0.4v0.9c0,0.3,0.1,0.4,0.4,0.4h1.4c0.1,0,0.4-0.1,0.4-0.4v-1
		C27.1,90.9,27,90.8,26.9,90.8z M26.5,91.8h-0.6v-0.4h0.6V91.8z"/>
	<path d="M33.3,91.1c0,0.1-0.1,0.4-0.4,0.4h-5c-0.1,0-0.4-0.1-0.4-0.4c0-0.1,0.1-0.4,0.4-0.4h5C33,90.8,33.3,90.9,33.3,91.1z"/>
	<path d="M30.9,92.1c0,0.3-0.1,0.4-0.4,0.4h-2.6c-0.1,0-0.4-0.1-0.4-0.4c0-0.1,0.1-0.4,0.4-0.4h2.6C30.8,91.8,30.9,91.9,30.9,92.1z"
		/>
	<path d="M32.2,92.1c0,0.3-0.1,0.4-0.4,0.4h-0.4c-0.3,0-0.4-0.1-0.4-0.4c0-0.1,0.1-0.4,0.4-0.4h0.4C32,91.8,32.2,91.9,32.2,92.1z"/>
	<path d="M26.9,93.1h-1.4c-0.1,0-0.4,0.1-0.4,0.4v1c0,0.3,0.1,0.4,0.4,0.4h1.4c0.1,0,0.4-0.1,0.4-0.4v-1
		C27.1,93.3,27,93.1,26.9,93.1z M26.5,94.1h-0.6v-0.4h0.6V94.1z"/>
	<path d="M33.3,93.5c0,0.1-0.1,0.4-0.4,0.4h-5c-0.1,0-0.4-0.1-0.4-0.4s0.1-0.4,0.4-0.4h5C33,93.1,33.3,93.3,33.3,93.5z"/>
	<path d="M30.9,94.5c0,0.3-0.1,0.4-0.4,0.4h-2.6c-0.1,0-0.4-0.1-0.4-0.4c0-0.1,0.1-0.4,0.4-0.4h2.6C30.8,94.1,30.9,94.3,30.9,94.5z"
		/>
	<path d="M32.2,94.5c0,0.3-0.1,0.4-0.4,0.4h-0.4c-0.3,0-0.4-0.1-0.4-0.4c0-0.1,0.1-0.4,0.4-0.4h0.4C32,94.1,32.2,94.3,32.2,94.5z"/>
</g>
<g id="Flat">
	<path class="st15" d="M49.7,47.8h1.6c0.1,0,0.1,0.1,0.1,0.1v4.5c0,0.1-0.1,0.1-0.1,0.1h-1.6c-0.1,0-0.1-0.1-0.1-0.1V48
		C49.5,47.8,49.7,47.8,49.7,47.8z"/>
	<path class="st16" d="M50.4,48.3h0.5c0.1,0,0.1,0.1,0.1,0.1v0.6c0,0.1-0.1,0.1-0.1,0.1h-0.5c-0.1,0-0.1-0.1-0.1-0.1v-0.5
		C50.3,48.5,50.3,48.3,50.4,48.3z"/>
	<path class="st16" d="M50.4,49.5h0.5c0.1,0,0.1,0.1,0.1,0.1v0.5c0,0.1-0.1,0.1-0.1,0.1h-0.5c-0.1,0-0.1-0.1-0.1-0.1v-0.5
		C50.3,49.6,50.3,49.5,50.4,49.5z"/>
	<path class="st15" d="M44,47.8h1.6c0.1,0,0.1,0.1,0.1,0.1v4.5c0,0.1-0.1,0.1-0.1,0.1H44c-0.1,0-0.1-0.1-0.1-0.1V48
		C43.9,47.8,44,47.8,44,47.8z"/>
	<path class="st16" d="M44.5,48.3H45c0.1,0,0.1,0.1,0.1,0.1v0.6c0,0.1-0.1,0.1-0.1,0.1h-0.5c-0.1,0-0.1-0.1-0.1-0.1v-0.5
		C44.4,48.5,44.4,48.3,44.5,48.3z"/>
	<path class="st16" d="M44.5,49.5H45c0.1,0,0.1,0.1,0.1,0.1v0.5c0,0.1-0.1,0.1-0.1,0.1h-0.5c-0.1,0-0.1-0.1-0.1-0.1v-0.5
		C44.4,49.6,44.4,49.5,44.5,49.5z"/>
	<path class="st17" d="M45.8,46.2h3.9c0.1,0,0.1,0.1,0.1,0.1v6c0,0.1-0.1,0.1-0.1,0.1h-3.9c-0.1,0-0.1-0.1-0.1-0.1v-6
		C45.6,46.3,45.6,46.2,45.8,46.2z"/>
	<g>
		<path class="st16" d="M46.1,46.8h0.5c0.1,0,0.1,0.1,0.1,0.1v0.5c0,0.1-0.1,0.1-0.1,0.1h-0.5c-0.1,0-0.1-0.1-0.1-0.1v-0.5
			C46,46.8,46.1,46.8,46.1,46.8z"/>
		<path class="st16" d="M47.4,46.8h0.5c0.1,0,0.1,0.1,0.1,0.1v0.5c0,0.1-0.1,0.1-0.1,0.1h-0.5c-0.1,0-0.1-0.1-0.1-0.1v-0.5
			C47.3,46.8,47.4,46.8,47.4,46.8z"/>
		<path class="st16" d="M48.6,46.8h0.5c0.1,0,0.1,0.1,0.1,0.1v0.5c0,0.1-0.1,0.1-0.1,0.1h-0.5c-0.1,0-0.1-0.1-0.1-0.1v-0.5
			C48.5,46.8,48.6,46.8,48.6,46.8z"/>
		<path class="st16" d="M46.1,48h0.5c0.1,0,0.1,0.1,0.1,0.1v0.5c0,0.1-0.1,0.1-0.1,0.1h-0.5c-0.1,0-0.1-0.1-0.1-0.1v-0.5
			C46,48,46.1,48,46.1,48z"/>
		<path class="st16" d="M47.4,48h0.5c0.1,0,0.1,0.1,0.1,0.1v0.5c0,0.1-0.1,0.1-0.1,0.1h-0.5c-0.1,0-0.1-0.1-0.1-0.1v-0.5
			C47.3,48,47.4,48,47.4,48z"/>
		<path class="st16" d="M48.6,48h0.5c0.1,0,0.1,0.1,0.1,0.1v0.5c0,0.1-0.1,0.1-0.1,0.1h-0.5c-0.1,0-0.1-0.1-0.1-0.1v-0.5
			C48.5,48,48.6,48,48.6,48z"/>
		<path class="st16" d="M46.1,49.1h0.5c0.1,0,0.1,0.1,0.1,0.1v0.5c0,0.1-0.1,0.1-0.1,0.1h-0.5c-0.1,0-0.1-0.1-0.1-0.1v-0.5
			C46,49.1,46.1,49.1,46.1,49.1z"/>
		<path class="st16" d="M47.4,49.1h0.5c0.1,0,0.1,0.1,0.1,0.1v0.5c0,0.1-0.1,0.1-0.1,0.1h-0.5c-0.1,0-0.1-0.1-0.1-0.1v-0.5
			C47.3,49.1,47.4,49.1,47.4,49.1z"/>
		<path class="st16" d="M48.6,49.1h0.5c0.1,0,0.1,0.1,0.1,0.1v0.5c0,0.1-0.1,0.1-0.1,0.1h-0.5c-0.1,0-0.1-0.1-0.1-0.1v-0.5
			C48.5,49.1,48.6,49.1,48.6,49.1z"/>
	</g>
	<path class="st15" d="M48.9,50.5h-2.3c-0.1,0-0.1-0.1-0.1-0.1l0.1-0.1h2.3c0.1,0,0.1,0.1,0.1,0.1L48.9,50.5z"/>
	<path class="st16" d="M46.9,50.3h1.6v2.1h-1.6V50.3z"/>
	<path class="st15" d="M48.5,50.2h-1.6c-0.1,0-0.1,0.1-0.1,0.1v2.1c0,0.1,0.1,0.1,0.1,0.1h1.6c0.1,0,0.1-0.1,0.1-0.1v-2.1
		C48.6,50.2,48.6,50.2,48.5,50.2z M47,50.5h0.5v1.9H47V50.5z M48.4,52.4h-0.5v-1.9h0.5V52.4z"/>
	<path class="st18" d="M51.8,52.6h-8.2c-0.1,0-0.1-0.1-0.1-0.1l0.1-0.1h8.2c0.1,0,0.1,0.1,0.1,0.1S51.9,52.6,51.8,52.6z"/>
	<path class="st19" d="M48.1,45.9L48.1,45.9c-0.3-0.1-0.6-0.1-0.9,0c-0.1,0-0.1,0-0.1-0.1s0-0.1,0.1-0.1c0.3-0.1,0.6-0.1,1,0
		c0.1,0,0.1,0.1,0.1,0.1C48.3,45.8,48.3,45.9,48.1,45.9L48.1,45.9z"/>
	<path class="st20" d="M48.5,45.3L48.5,45.3c-0.5-0.3-1.1-0.3-1.6,0c-0.1,0-0.1,0-0.3,0c0-0.1,0-0.1,0-0.3l0,0
		c0.6-0.3,1.3-0.3,1.8,0C48.6,45.1,48.8,45.2,48.5,45.3C48.6,45.3,48.6,45.3,48.5,45.3z"/>
	<path class="st21" d="M48.9,44.8L48.9,44.8c-0.8-0.5-1.6-0.5-2.4,0c-0.1,0-0.1,0-0.3,0c0-0.1,0-0.1,0-0.3c0.8-0.5,1.8-0.5,2.6,0
		C49.1,44.6,49.1,44.6,48.9,44.8C49,44.7,49,44.8,48.9,44.8L48.9,44.8z"/>
</g>
<g id="Flat_1_">
	<path class="st15" d="M50.3,89.1h1.6c0.1,0,0.1,0.1,0.1,0.1v4.5c0,0.1-0.1,0.1-0.1,0.1h-1.6c-0.1,0-0.1-0.1-0.1-0.1v-4.5
		C50.2,89.2,50.2,89.1,50.3,89.1z"/>
	<path class="st16" d="M51,89.7h0.5c0.1,0,0.1,0.1,0.1,0.1v0.5c0,0.1-0.1,0.1-0.1,0.1H51c-0.1,0-0.1-0.1-0.1-0.1v-0.5
		C50.8,89.7,50.9,89.7,51,89.7z"/>
	<path class="st16" d="M51,90.9h0.5c0.1,0,0.1,0.1,0.1,0.1v0.5c0,0.1-0.1,0.1-0.1,0.1H51c-0.1,0-0.1-0.1-0.1-0.1V91
		C50.8,90.9,50.9,90.9,51,90.9z"/>
	<path class="st15" d="M44.6,89.1h1.6c0.1,0,0.1,0.1,0.1,0.1v4.5c0,0.1-0.1,0.1-0.1,0.1h-1.6c-0.1,0-0.1-0.1-0.1-0.1v-4.5
		C44.5,89.2,44.5,89.1,44.6,89.1z"/>
	<path class="st16" d="M45,89.7h0.5c0.1,0,0.1,0.1,0.1,0.1v0.5c0,0.1-0.1,0.1-0.1,0.1H45c-0.1,0-0.1-0.1-0.1-0.1v-0.5
		C44.9,89.7,45,89.7,45,89.7z"/>
	<path class="st16" d="M45,90.9h0.5c0.1,0,0.1,0.1,0.1,0.1v0.5c0,0.1-0.1,0.1-0.1,0.1H45c-0.1,0-0.1-0.1-0.1-0.1V91
		C44.9,90.9,45,90.9,45,90.9z"/>
	<path class="st17" d="M46.4,87.6h3.9c0.1,0,0.1,0.1,0.1,0.1v6c0,0.1-0.1,0.1-0.1,0.1h-3.9c-0.1,0-0.1-0.1-0.1-0.1v-6
		C46.1,87.6,46.3,87.6,46.4,87.6z"/>
	<g>
		<path class="st16" d="M46.8,88.1h0.5c0.1,0,0.1,0.1,0.1,0.1v0.5c0,0.1-0.1,0.1-0.1,0.1h-0.5c-0.1,0-0.1-0.1-0.1-0.1v-0.5
			C46.6,88.2,46.6,88.1,46.8,88.1z"/>
		<path class="st16" d="M48,88.1h0.5c0.1,0,0.1,0.1,0.1,0.1v0.5c0,0.1-0.1,0.1-0.1,0.1H48c-0.1,0-0.1-0.1-0.1-0.1v-0.5
			C47.9,88.2,47.9,88.1,48,88.1z"/>
		<path class="st16" d="M49.3,88.1h0.6c0.1,0,0.1,0.1,0.1,0.1v0.5c0,0.1-0.1,0.1-0.1,0.1h-0.5c-0.1,0-0.1-0.1-0.1-0.1v-0.5
			C49.1,88.2,49.1,88.1,49.3,88.1z"/>
		<path class="st16" d="M46.8,89.2h0.5c0.1,0,0.1,0.1,0.1,0.1v0.5c0,0.1-0.1,0.1-0.1,0.1h-0.5c-0.1,0-0.1-0.1-0.1-0.1v-0.5
			C46.6,89.4,46.6,89.2,46.8,89.2z"/>
		<path class="st16" d="M48,89.2h0.5c0.1,0,0.1,0.1,0.1,0.1v0.5c0,0.1-0.1,0.1-0.1,0.1H48c-0.1,0-0.1-0.1-0.1-0.1v-0.5
			C47.9,89.4,47.9,89.2,48,89.2z"/>
		<path class="st16" d="M49.3,89.2h0.6c0.1,0,0.1,0.1,0.1,0.1v0.5c0,0.1-0.1,0.1-0.1,0.1h-0.5c-0.1,0-0.1-0.1-0.1-0.1v-0.5
			C49.1,89.4,49.1,89.2,49.3,89.2z"/>
		<path class="st16" d="M46.8,90.4h0.5c0.1,0,0.1,0.1,0.1,0.1V91c0,0.1-0.1,0.1-0.1,0.1h-0.5c-0.1,0-0.1-0.1-0.1-0.1v-0.5
			C46.6,90.5,46.6,90.4,46.8,90.4z"/>
		<path class="st16" d="M48,90.4h0.5c0.1,0,0.1,0.1,0.1,0.1V91c0,0.1-0.1,0.1-0.1,0.1H48c-0.1,0-0.1-0.1-0.1-0.1v-0.5
			C47.9,90.5,47.9,90.4,48,90.4z"/>
		<path class="st16" d="M49.3,90.4h0.6c0.1,0,0.1,0.1,0.1,0.1V91c0,0.1-0.1,0.1-0.1,0.1h-0.5c-0.1,0-0.1-0.1-0.1-0.1v-0.5
			C49.1,90.5,49.1,90.4,49.3,90.4z"/>
	</g>
	<path class="st15" d="M49.4,91.8h-2.3c-0.1,0-0.1-0.1-0.1-0.1l0.1-0.1h2.3c0.1,0,0.1,0.1,0.1,0.1S49.5,91.8,49.4,91.8z"/>
	<path class="st16" d="M47.5,91.6h1.6v2.1h-1.6V91.6z"/>
	<path class="st15" d="M49.1,91.5h-1.6c-0.1,0-0.1,0.1-0.1,0.1v2.1c0,0.1,0.1,0.1,0.1,0.1h1.6c0.1,0,0.1-0.1,0.1-0.1v-2.1
		C49.3,91.6,49.3,91.5,49.1,91.5z M47.6,91.8h0.5v1.9h-0.5V91.8z M49,93.6h-0.5v-1.9H49V93.6z"/>
	<path class="st18" d="M52.4,93.9h-8.2c-0.1,0-0.1-0.1-0.1-0.1l0.1-0.1h8.2c0.1,0,0.1,0.1,0.1,0.1L52.4,93.9z"/>
	<path class="st19" d="M48.8,87.2C48.8,87.2,48.6,87.2,48.8,87.2c-0.3-0.1-0.6-0.1-0.9,0c-0.1,0-0.1,0-0.1-0.1c0-0.1,0-0.1,0.1-0.1
		c0.3-0.1,0.6-0.1,1,0c0.1,0,0.1,0.1,0.1,0.1C48.9,87.2,48.8,87.2,48.8,87.2L48.8,87.2z"/>
	<path class="st20" d="M49.1,86.7L49.1,86.7c-0.5-0.3-1.1-0.3-1.6,0c-0.1,0-0.1,0-0.3,0c0-0.1,0-0.1,0-0.3l0,0
		c0.6-0.3,1.3-0.3,1.8,0C49.3,86.5,49.3,86.5,49.1,86.7C49.3,86.6,49.1,86.7,49.1,86.7z"/>
	<path class="st21" d="M49.5,86.1L49.5,86.1c-0.8-0.5-1.6-0.5-2.4,0c-0.1,0-0.1,0-0.3,0c0-0.1,0-0.1,0-0.3c0.8-0.5,1.8-0.5,2.6,0
		C49.7,85.8,49.7,86,49.5,86.1C49.7,86.1,49.5,86.1,49.5,86.1L49.5,86.1z"/>
</g>
<g>
	<polygon class="st22" points="42.9,66.5 42.9,74.5 44.9,74.5 47.4,66.5 	"/>
	<polygon class="st23" points="51.9,66.5 47.4,66.5 49.8,74.5 51.9,74.5 	"/>
	<rect x="43.6" y="67.6" class="st24" width="0.5" height="0.5"/>
	<rect x="43.6" y="68.6" class="st24" width="0.5" height="0.5"/>
	<rect x="43.6" y="69.7" class="st24" width="0.5" height="0.5"/>
	<rect x="43.6" y="70.7" class="st24" width="0.5" height="0.5"/>
	<rect x="50.5" y="67.6" class="st25" width="0.5" height="0.5"/>
	<rect x="50.5" y="68.6" class="st25" width="0.5" height="0.5"/>
	<rect x="50.5" y="69.7" class="st25" width="0.5" height="0.5"/>
	<rect x="50.5" y="70.7" class="st25" width="0.5" height="0.5"/>
	<rect x="43.6" y="71.7" class="st24" width="0.5" height="0.5"/>
	<rect x="50.5" y="71.7" class="st25" width="0.5" height="0.5"/>
	<polygon class="st22" points="49.8,65.4 47.4,65.4 46.3,70 48.6,74.5 49.8,74.5 	"/>
	<polygon class="st26" points="44.9,65.4 44.9,74.5 46,74.5 47.4,73.4 47.4,65.4 	"/>
	<polygon class="st27" points="48.6,66.5 47.4,66.5 46.8,67.2 47.4,68.1 48.6,68.1 	"/>
	<rect x="46" y="66.5" class="st24" width="1.4" height="1.6"/>
	<polygon class="st27" points="48.6,68.6 47.4,68.6 46.8,69.3 47.4,70.2 48.6,70.2 	"/>
	<rect x="46" y="68.6" class="st24" width="1.4" height="1.6"/>
	<polygon class="st25" points="48.6,72 48.6,70.7 47.4,70.7 46.8,72.6 	"/>
	<polygon class="st24" points="47.4,70.7 46,70.7 46,72 47.4,72.6 	"/>
	<polygon class="st28" points="47.4,72 46.6,73.2 47.4,74.5 48.6,74.5 48.6,72 	"/>
	<rect x="46" y="72" class="st29" width="1.4" height="2.4"/>
</g>
<g>
	<path class="st30" d="M77.7,95.2l4.3,4.3l-5.8,5.8l-4.3-4.3L77.7,95.2z"/>
	<path class="st31" d="M76.3,93.8l2.9,2.9l-5.8,5.8l-2.9-2.9L76.3,93.8z"/>
	<path class="st32" d="M65.7,118.7c0,0,9.1-11.9,9.1-11.9l-2.9-5.8l-15.4,18.3c2.4,2.4,6.3,2.4,8.7,0
		C65.4,119.1,65.6,118.9,65.7,118.7z"/>
	<path class="st33" d="M62.3,116.4c0.2-0.2,0.4-0.4,0.5-0.6c0,0,9.1-11.9,9.1-11.9V101H69l-11.9,9.1c-0.2,0.2-0.4,0.3-0.6,0.5
		c-2.4,2.4-2.4,6.3,0,8.7C57.3,120.1,59.9,118.8,62.3,116.4z"/>
	<circle class="st30" cx="98" cy="77.9" r="24.6"/>
	<path class="st31" d="M83.5,98.1l-2.9-2.9l-2.9,2.9l2.9,2.9c0.8,0.8,2.1,0.8,2.9,0C84.3,100.2,84.3,98.9,83.5,98.1z"/>
	<path class="st34" d="M80.6,98.1c0.8-0.8,0.8-2.1,0-2.9l-2.9-2.9c-0.8-0.8-2.1-0.8-2.9,0c-0.8,0.8-0.8,2.1,0,2.9l2.9,2.9
		C78.5,98.9,79.8,98.9,80.6,98.1z"/>
	<path class="st31" d="M77.7,103.9l-2.9-2.9l-2.9,2.9l2.9,2.9c0.8,0.8,2.1,0.8,2.9,0C78.5,106,78.5,104.7,77.7,103.9z"/>
	<path class="st34" d="M74.8,103.9c0.8-0.8,0.8-2.1,0-2.9l-2.9-2.9c-0.8-0.8-2.1-0.8-2.9,0c-0.8,0.8-0.8,2.1,0,2.9l2.9,2.9
		C72.7,104.7,74,104.7,74.8,103.9z"/>
	<path class="st35" d="M112.4,63.4L83.5,92.3c8,8,20.9,8,28.9,0S120.4,71.4,112.4,63.4z"/>
	<path class="st24" d="M109.5,89.4c8-8,9.3-19.7,2.9-26c-8-8-20.9-8-28.9,0s-8,20.9,0,28.9C89.9,98.7,101.5,97.4,109.5,89.4
		L109.5,89.4z"/>
	<path d="M116.1,59.8c-10-10-26.2-10-36.2,0c-8.4,8.4-9.7,21.2-4,31c-0.6,0.1-1.3,0.4-1.8,0.9c-0.9,0.9-1.1,2.4-0.6,3.5l-1.7,1.7
		c-1.1-0.5-2.6-0.3-3.5,0.6c-0.9,0.9-1.1,2.3-0.7,3.4l-11.1,8.5c-0.3,0.2-0.5,0.4-0.7,0.6c-2.8,2.8-2.8,7.3,0,10.1
		c2.8,2.8,7.3,2.8,10.1,0c0.2-0.2,0.4-0.5,0.6-0.7l0,0c0.1-0.1,8.5-11.1,8.5-11.1c1.1,0.5,2.5,0.3,3.4-0.7c0.9-0.9,1.1-2.4,0.6-3.5
		l1.7-1.7c1.1,0.5,2.6,0.3,3.5-0.6c0.5-0.5,0.8-1.1,0.9-1.8c9.8,5.7,22.6,4.4,31-4C126,86,126,69.8,116.1,59.8L116.1,59.8z
		 M64.9,118.1c-0.1,0.2-0.3,0.4-0.4,0.5c-2,2-5.2,2-7.2,0c-2-2-2-5.2,0-7.2c0.2-0.2,0.3-0.3,0.5-0.4l11.2-8.5l4.5,4.5
		C71.5,109.4,64.9,118.1,64.9,118.1z M77,106.1c-0.4,0.4-1,0.4-1.4,0l-5.8-5.8c-0.4-0.4-0.4-1,0-1.4c0.4-0.4,1-0.4,1.4,0l5.8,5.8
		C77.4,105,77.4,105.7,77,106.1L77,106.1z M77.7,102.5l-4.3-4.3l1.4-1.4l4.3,4.3L77.7,102.5z M82.8,100.3c-0.4,0.4-1,0.4-1.4,0
		l-5.8-5.8c-0.4-0.4-0.4-1,0-1.4c0.4-0.4,1-0.4,1.4,0l5.8,5.8C83.2,99.2,83.2,99.9,82.8,100.3L82.8,100.3z M114.6,94.5
		c-9.2,9.2-24.1,9.2-33.3,0s-9.2-24.1,0-33.3s24.1-9.2,33.3,0S123.8,85.3,114.6,94.5z"/>
	<path d="M113.2,62.7c-3.8-3.8-8.8-6-14.2-6.3c-5.3-0.2-10.5,1.5-14.6,4.8c-0.4,0.4-0.5,1-0.1,1.4c0.4,0.4,1,0.5,1.4,0.1
		c7.8-6.4,19-5.8,26.1,1.3c7.6,7.6,7.6,19.9,0,27.5c-7.6,7.6-19.9,7.6-27.5,0c-7.1-7.1-7.7-18.3-1.3-26.1c0.4-0.4,0.3-1.1-0.1-1.4
		c-0.4-0.4-1.1-0.3-1.4,0.1c-3.4,4.1-5.1,9.3-4.8,14.6c0.2,5.4,2.5,10.4,6.3,14.2c8.4,8.4,22,8.4,30.4,0S121.5,71.1,113.2,62.7
		L113.2,62.7z"/>
</g>
</svg>
